<?xml version="1.0" encoding="UTF-8" standalone="no"?>
<!DOCTYPE svg PUBLIC "-//W3C//DTD SVG 1.1//EN"
 "http://www.w3.org/Graphics/SVG/1.1/DTD/svg11.dtd">
<!-- Generated by graphviz version 2.26.3 (20100126.1600)
 -->
<!-- Title: pg_depend Pages: 1 -->
<svg width="4255pt" height="1012pt"
 viewBox="0.00 0.00 4255.00 1012.00" xmlns="http://www.w3.org/2000/svg" xmlns:xlink="http://www.w3.org/1999/xlink">
<g id="graph1" class="graph" transform="scale(1 1) rotate(0) translate(4 1008)">
<title>pg_depend</title>
<polygon fill="white" stroke="white" points="-4,5 -4,-1008 4252,-1008 4252,5 -4,5"/>
<!-- constraint t1_pkey on table t1 2606.23357 -->
<g id="node1" class="node"><title>constraint t1_pkey on table t1 2606.23357</title>
<ellipse fill="none" stroke="black" cx="1841" cy="-986" rx="165.235" ry="18"/>
<text text-anchor="middle" x="1841" y="-980.9" font-family="Times,serif" font-size="14.00">constraint t1_pkey on table t1 2606.23357</text>
</g>
<!-- index t1_pkey 1259.23356 -->
<g id="node3" class="node"><title>index t1_pkey 1259.23356</title>
<ellipse fill="none" stroke="black" cx="1727" cy="-898" rx="109.19" ry="18"/>
<text text-anchor="middle" x="1727" y="-892.9" font-family="Times,serif" font-size="14.00">index t1_pkey 1259.23356</text>
</g>
<!-- constraint t1_pkey on table t1 2606.23357&#45;&gt;index t1_pkey 1259.23356 -->
<g id="edge2" class="edge"><title>constraint t1_pkey on table t1 2606.23357&#45;&gt;index t1_pkey 1259.23356</title>
<path fill="none" stroke="red" d="M1817.66,-967.98C1800.41,-954.664 1776.75,-936.402 1757.93,-921.873"/>
<polygon fill="red" stroke="red" points="1759.98,-919.036 1749.92,-915.696 1755.7,-924.577 1759.98,-919.036"/>
<text text-anchor="middle" x="1797.5" y="-936.9" font-family="Times,serif" font-size="14.00">i</text>
</g>
<!-- table t1 1259.23353 -->
<g id="node5" class="node"><title>table t1 1259.23353</title>
<ellipse fill="none" stroke="black" cx="1954" cy="-898" rx="83.1926" ry="18"/>
<text text-anchor="middle" x="1954" y="-892.9" font-family="Times,serif" font-size="14.00">table t1 1259.23353</text>
</g>
<!-- constraint t1_pkey on table t1 2606.23357&#45;&gt;table t1 1259.23353 -->
<g id="edge4" class="edge"><title>constraint t1_pkey on table t1 2606.23357&#45;&gt;table t1 1259.23353</title>
<path fill="none" stroke="blue" d="M1864.14,-967.98C1881.35,-954.576 1905,-936.161 1923.71,-921.586"/>
<polygon fill="blue" stroke="blue" points="1925.92,-924.302 1931.66,-915.397 1921.62,-918.779 1925.92,-924.302"/>
<text text-anchor="middle" x="1911.5" y="-936.9" font-family="Times,serif" font-size="14.00">a</text>
</g>
<!-- constraint t2_id_fkey on table t2 2606.23366 -->
<g id="node6" class="node"><title>constraint t2_id_fkey on table t2 2606.23366</title>
<ellipse fill="none" stroke="black" cx="1677" cy="-810" rx="176.784" ry="18"/>
<text text-anchor="middle" x="1677" y="-804.9" font-family="Times,serif" font-size="14.00">constraint t2_id_fkey on table t2 2606.23366</text>
</g>
<!-- index t1_pkey 1259.23356&#45;&gt;constraint t2_id_fkey on table t2 2606.23366 -->
<g id="edge32" class="edge"><title>index t1_pkey 1259.23356&#45;&gt;constraint t2_id_fkey on table t2 2606.23366</title>
<path fill="none" stroke="black" d="M1716.64,-879.766C1709.67,-867.495 1700.35,-851.096 1692.5,-837.28"/>
<polygon fill="black" stroke="black" points="1695.33,-835.176 1687.35,-828.21 1689.24,-838.634 1695.33,-835.176"/>
<text text-anchor="middle" x="1710.5" y="-848.9" font-family="Times,serif" font-size="14.00">n</text>
</g>
<!-- table t1 1259.23353&#45;&gt;constraint t2_id_fkey on table t2 2606.23366 -->
<g id="edge64" class="edge"><title>table t1 1259.23353&#45;&gt;constraint t2_id_fkey on table t2 2606.23366</title>
<path fill="none" stroke="black" d="M1907.01,-883.072C1861.33,-868.561 1791.62,-846.413 1740.91,-830.304"/>
<polygon fill="black" stroke="black" points="1741.95,-826.961 1731.36,-827.269 1739.83,-833.632 1741.95,-826.961"/>
<text text-anchor="middle" x="1844.5" y="-848.9" font-family="Times,serif" font-size="14.00">n</text>
</g>
<!-- rule _RETURN on view v1 2618.23381 -->
<g id="node35" class="node"><title>rule _RETURN on view v1 2618.23381</title>
<ellipse fill="none" stroke="black" cx="2211" cy="-810" rx="156.787" ry="18"/>
<text text-anchor="middle" x="2211" y="-804.9" font-family="Times,serif" font-size="14.00">rule _RETURN on view v1 2618.23381</text>
</g>
<!-- table t1 1259.23353&#45;&gt;rule _RETURN on view v1 2618.23381 -->
<g id="edge66" class="edge"><title>table t1 1259.23353&#45;&gt;rule _RETURN on view v1 2618.23381</title>
<path fill="none" stroke="black" d="M1998.47,-882.772C2040.72,-868.305 2104.55,-846.449 2151.23,-830.465"/>
<polygon fill="black" stroke="black" points="2152.59,-833.699 2160.92,-827.148 2150.33,-827.076 2152.59,-833.699"/>
<text text-anchor="middle" x="2109.5" y="-848.9" font-family="Times,serif" font-size="14.00">n</text>
</g>
<!-- type t1 1247.23355 -->
<g id="node63" class="node"><title>type t1 1247.23355</title>
<ellipse fill="none" stroke="black" cx="1954" cy="-810" rx="81.8927" ry="18"/>
<text text-anchor="middle" x="1954" y="-804.9" font-family="Times,serif" font-size="14.00">type t1 1247.23355</text>
</g>
<!-- table t1 1259.23353&#45;&gt;type t1 1247.23355 -->
<g id="edge68" class="edge"><title>table t1 1259.23353&#45;&gt;type t1 1247.23355</title>
<path fill="none" stroke="red" d="M1954,-879.766C1954,-867.849 1954,-852.038 1954,-838.482"/>
<polygon fill="red" stroke="red" points="1957.5,-838.21 1954,-828.21 1950.5,-838.21 1957.5,-838.21"/>
<text text-anchor="middle" x="1956.5" y="-848.9" font-family="Times,serif" font-size="14.00">i</text>
</g>
<!-- table t2 1259.23361 -->
<g id="node8" class="node"><title>table t2 1259.23361</title>
<ellipse fill="none" stroke="black" cx="2426" cy="-722" rx="83.1926" ry="18"/>
<text text-anchor="middle" x="2426" y="-716.9" font-family="Times,serif" font-size="14.00">table t2 1259.23361</text>
</g>
<!-- constraint t2_id_fkey on table t2 2606.23366&#45;&gt;table t2 1259.23361 -->
<g id="edge6" class="edge"><title>constraint t2_id_fkey on table t2 2606.23366&#45;&gt;table t2 1259.23361</title>
<path fill="none" stroke="blue" d="M1801.24,-797.158C1821.86,-795.263 1843.02,-793.46 1863,-792 2024.54,-780.196 2066.9,-798.606 2227,-774 2275.97,-766.474 2330.31,-751.832 2369.82,-739.998"/>
<polygon fill="blue" stroke="blue" points="2370.97,-743.305 2379.53,-737.056 2368.94,-736.605 2370.97,-743.305"/>
<text text-anchor="middle" x="2308.5" y="-760.9" font-family="Times,serif" font-size="14.00">a</text>
</g>
<!-- trigger RI_ConstraintTrigger_23367 on table t2 2620.23367 -->
<g id="node10" class="node"><title>trigger RI_ConstraintTrigger_23367 on table t2 2620.23367</title>
<ellipse fill="none" stroke="black" cx="1680" cy="-722" rx="232.029" ry="18"/>
<text text-anchor="middle" x="1680" y="-716.9" font-family="Times,serif" font-size="14.00">trigger RI_ConstraintTrigger_23367 on table t2 2620.23367</text>
</g>
<!-- constraint t2_id_fkey on table t2 2606.23366&#45;&gt;trigger RI_ConstraintTrigger_23367 on table t2 2620.23367 -->
<g id="edge8" class="edge"><title>constraint t2_id_fkey on table t2 2606.23366&#45;&gt;trigger RI_ConstraintTrigger_23367 on table t2 2620.23367</title>
<path fill="none" stroke="red" d="M1677.62,-791.766C1678.03,-779.849 1678.57,-764.038 1679.03,-750.482"/>
<polygon fill="red" stroke="red" points="1682.54,-750.324 1679.38,-740.21 1675.54,-750.085 1682.54,-750.324"/>
<text text-anchor="middle" x="1681.5" y="-760.9" font-family="Times,serif" font-size="14.00">i</text>
</g>
<!-- trigger RI_ConstraintTrigger_23368 on table t2 2620.23368 -->
<g id="node12" class="node"><title>trigger RI_ConstraintTrigger_23368 on table t2 2620.23368</title>
<ellipse fill="none" stroke="black" cx="232" cy="-722" rx="232.029" ry="18"/>
<text text-anchor="middle" x="232" y="-716.9" font-family="Times,serif" font-size="14.00">trigger RI_ConstraintTrigger_23368 on table t2 2620.23368</text>
</g>
<!-- constraint t2_id_fkey on table t2 2606.23366&#45;&gt;trigger RI_ConstraintTrigger_23368 on table t2 2620.23368 -->
<g id="edge10" class="edge"><title>constraint t2_id_fkey on table t2 2606.23366&#45;&gt;trigger RI_ConstraintTrigger_23368 on table t2 2620.23368</title>
<path fill="none" stroke="red" d="M1519.66,-801.681C1289.68,-789.333 848.274,-764.922 473,-740 451.671,-738.584 429.287,-737.018 407.111,-735.419"/>
<polygon fill="red" stroke="red" points="407.169,-731.914 396.942,-734.682 406.663,-738.896 407.169,-731.914"/>
<text text-anchor="middle" x="1004.5" y="-760.9" font-family="Times,serif" font-size="14.00">i</text>
</g>
<!-- trigger RI_ConstraintTrigger_23369 on table t1 2620.23369 -->
<g id="node14" class="node"><title>trigger RI_ConstraintTrigger_23369 on table t1 2620.23369</title>
<ellipse fill="none" stroke="black" cx="715" cy="-722" rx="232.83" ry="18"/>
<text text-anchor="middle" x="715" y="-716.9" font-family="Times,serif" font-size="14.00">trigger RI_ConstraintTrigger_23369 on table t1 2620.23369</text>
</g>
<!-- constraint t2_id_fkey on table t2 2606.23366&#45;&gt;trigger RI_ConstraintTrigger_23369 on table t1 2620.23369 -->
<g id="edge12" class="edge"><title>constraint t2_id_fkey on table t2 2606.23366&#45;&gt;trigger RI_ConstraintTrigger_23369 on table t1 2620.23369</title>
<path fill="none" stroke="red" d="M1545.26,-797.948C1370.84,-781.994 1063.51,-753.88 875.672,-736.698"/>
<polygon fill="red" stroke="red" points="875.982,-733.211 865.705,-735.786 875.344,-740.182 875.982,-733.211"/>
<text text-anchor="middle" x="1285.5" y="-760.9" font-family="Times,serif" font-size="14.00">i</text>
</g>
<!-- trigger RI_ConstraintTrigger_23370 on table t1 2620.23370 -->
<g id="node16" class="node"><title>trigger RI_ConstraintTrigger_23370 on table t1 2620.23370</title>
<ellipse fill="none" stroke="black" cx="1198" cy="-722" rx="232.029" ry="18"/>
<text text-anchor="middle" x="1198" y="-716.9" font-family="Times,serif" font-size="14.00">trigger RI_ConstraintTrigger_23370 on table t1 2620.23370</text>
</g>
<!-- constraint t2_id_fkey on table t2 2606.23366&#45;&gt;trigger RI_ConstraintTrigger_23370 on table t1 2620.23370 -->
<g id="edge14" class="edge"><title>constraint t2_id_fkey on table t2 2606.23366&#45;&gt;trigger RI_ConstraintTrigger_23370 on table t1 2620.23370</title>
<path fill="none" stroke="red" d="M1591.09,-794.217C1508.91,-779.119 1385.01,-756.356 1298.34,-740.433"/>
<polygon fill="red" stroke="red" points="1298.95,-736.988 1288.49,-738.624 1297.69,-743.873 1298.95,-736.988"/>
<text text-anchor="middle" x="1483.5" y="-760.9" font-family="Times,serif" font-size="14.00">i</text>
</g>
<!-- rule _RETURN on view v2 2618.23385 -->
<g id="node38" class="node"><title>rule _RETURN on view v2 2618.23385</title>
<ellipse fill="none" stroke="black" cx="2637" cy="-634" rx="156.787" ry="18"/>
<text text-anchor="middle" x="2637" y="-628.9" font-family="Times,serif" font-size="14.00">rule _RETURN on view v2 2618.23385</text>
</g>
<!-- table t2 1259.23361&#45;&gt;rule _RETURN on view v2 2618.23385 -->
<g id="edge70" class="edge"><title>table t2 1259.23361&#45;&gt;rule _RETURN on view v2 2618.23385</title>
<path fill="none" stroke="black" d="M2464.7,-705.859C2498.67,-691.694 2548.32,-670.984 2585.61,-655.432"/>
<polygon fill="black" stroke="black" points="2587.41,-658.474 2595.29,-651.394 2584.72,-652.013 2587.41,-658.474"/>
<text text-anchor="middle" x="2554.5" y="-672.9" font-family="Times,serif" font-size="14.00">n</text>
</g>
<!-- type t2 1247.23363 -->
<g id="node66" class="node"><title>type t2 1247.23363</title>
<ellipse fill="none" stroke="black" cx="2381" cy="-634" rx="81.2428" ry="18"/>
<text text-anchor="middle" x="2381" y="-628.9" font-family="Times,serif" font-size="14.00">type t2 1247.23363</text>
</g>
<!-- table t2 1259.23361&#45;&gt;type t2 1247.23363 -->
<g id="edge72" class="edge"><title>table t2 1259.23361&#45;&gt;type t2 1247.23363</title>
<path fill="none" stroke="red" d="M2416.68,-703.766C2410.36,-691.413 2401.9,-674.877 2394.81,-661.004"/>
<polygon fill="red" stroke="red" points="2397.83,-659.219 2390.16,-651.909 2391.59,-662.406 2397.83,-659.219"/>
<text text-anchor="middle" x="2410.5" y="-672.9" font-family="Times,serif" font-size="14.00">i</text>
</g>
<!-- constraint t2_pkey on table t2 2606.23365 -->
<g id="node17" class="node"><title>constraint t2_pkey on table t2 2606.23365</title>
<ellipse fill="none" stroke="black" cx="2628" cy="-810" rx="165.886" ry="18"/>
<text text-anchor="middle" x="2628" y="-804.9" font-family="Times,serif" font-size="14.00">constraint t2_pkey on table t2 2606.23365</text>
</g>
<!-- constraint t2_pkey on table t2 2606.23365&#45;&gt;table t2 1259.23361 -->
<g id="edge18" class="edge"><title>constraint t2_pkey on table t2 2606.23365&#45;&gt;table t2 1259.23361</title>
<path fill="none" stroke="blue" d="M2587.61,-792.403C2554.46,-777.962 2507.48,-757.498 2472.72,-742.352"/>
<polygon fill="blue" stroke="blue" points="2473.82,-739.016 2463.26,-738.231 2471.03,-745.433 2473.82,-739.016"/>
<text text-anchor="middle" x="2549.5" y="-760.9" font-family="Times,serif" font-size="14.00">a</text>
</g>
<!-- index t2_pkey 1259.23364 -->
<g id="node19" class="node"><title>index t2_pkey 1259.23364</title>
<ellipse fill="none" stroke="black" cx="2637" cy="-722" rx="109.84" ry="18"/>
<text text-anchor="middle" x="2637" y="-716.9" font-family="Times,serif" font-size="14.00">index t2_pkey 1259.23364</text>
</g>
<!-- constraint t2_pkey on table t2 2606.23365&#45;&gt;index t2_pkey 1259.23364 -->
<g id="edge16" class="edge"><title>constraint t2_pkey on table t2 2606.23365&#45;&gt;index t2_pkey 1259.23364</title>
<path fill="none" stroke="red" d="M2629.86,-791.766C2631.08,-779.849 2632.7,-764.038 2634.09,-750.482"/>
<polygon fill="red" stroke="red" points="2637.6,-750.515 2635.14,-740.21 2630.64,-749.802 2637.6,-750.515"/>
<text text-anchor="middle" x="2636.5" y="-760.9" font-family="Times,serif" font-size="14.00">i</text>
</g>
<!-- constraint t3_id_check on table t3 2606.23375 -->
<g id="node21" class="node"><title>constraint t3_id_check on table t3 2606.23375</title>
<ellipse fill="none" stroke="black" cx="3644" cy="-810" rx="181.984" ry="18"/>
<text text-anchor="middle" x="3644" y="-804.9" font-family="Times,serif" font-size="14.00">constraint t3_id_check on table t3 2606.23375</text>
</g>
<!-- table t3 1259.23371 -->
<g id="node23" class="node"><title>table t3 1259.23371</title>
<ellipse fill="none" stroke="black" cx="3787" cy="-722" rx="83.1926" ry="18"/>
<text text-anchor="middle" x="3787" y="-716.9" font-family="Times,serif" font-size="14.00">table t3 1259.23371</text>
</g>
<!-- constraint t3_id_check on table t3 2606.23375&#45;&gt;table t3 1259.23371 -->
<g id="edge20" class="edge"><title>constraint t3_id_check on table t3 2606.23375&#45;&gt;table t3 1259.23371</title>
<path fill="none" stroke="yellow" d="M3672.94,-792.192C3695.33,-778.415 3726.46,-759.252 3750.55,-744.429"/>
<polygon fill="yellow" stroke="yellow" points="3752.4,-747.405 3759.08,-739.183 3748.73,-741.443 3752.4,-747.405"/>
<text text-anchor="middle" x="3734.5" y="-760.9" font-family="Times,serif" font-size="14.00">an</text>
</g>
<!-- type t3 1247.23373 -->
<g id="node68" class="node"><title>type t3 1247.23373</title>
<ellipse fill="none" stroke="black" cx="3787" cy="-634" rx="81.2428" ry="18"/>
<text text-anchor="middle" x="3787" y="-628.9" font-family="Times,serif" font-size="14.00">type t3 1247.23373</text>
</g>
<!-- table t3 1259.23371&#45;&gt;type t3 1247.23373 -->
<g id="edge74" class="edge"><title>table t3 1259.23371&#45;&gt;type t3 1247.23373</title>
<path fill="none" stroke="red" d="M3787,-703.766C3787,-691.849 3787,-676.038 3787,-662.482"/>
<polygon fill="red" stroke="red" points="3790.5,-662.21 3787,-652.21 3783.5,-662.21 3790.5,-662.21"/>
<text text-anchor="middle" x="3789.5" y="-672.9" font-family="Times,serif" font-size="14.00">i</text>
</g>
<!-- constraint t3_pkey on table t3 2606.23377 -->
<g id="node24" class="node"><title>constraint t3_pkey on table t3 2606.23377</title>
<ellipse fill="none" stroke="black" cx="4047" cy="-810" rx="165.085" ry="18"/>
<text text-anchor="middle" x="4047" y="-804.9" font-family="Times,serif" font-size="14.00">constraint t3_pkey on table t3 2606.23377</text>
</g>
<!-- constraint t3_pkey on table t3 2606.23377&#45;&gt;table t3 1259.23371 -->
<g id="edge24" class="edge"><title>constraint t3_pkey on table t3 2606.23377&#45;&gt;table t3 1259.23371</title>
<path fill="none" stroke="blue" d="M3996.25,-792.824C3951.78,-777.772 3887.3,-755.948 3841.7,-740.512"/>
<polygon fill="blue" stroke="blue" points="3842.57,-737.114 3831.98,-737.223 3840.33,-743.744 3842.57,-737.114"/>
<text text-anchor="middle" x="3943.5" y="-760.9" font-family="Times,serif" font-size="14.00">a</text>
</g>
<!-- index t3_pkey 1259.23376 -->
<g id="node26" class="node"><title>index t3_pkey 1259.23376</title>
<ellipse fill="none" stroke="black" cx="4047" cy="-722" rx="108.04" ry="18"/>
<text text-anchor="middle" x="4047" y="-716.9" font-family="Times,serif" font-size="14.00">index t3_pkey 1259.23376</text>
</g>
<!-- constraint t3_pkey on table t3 2606.23377&#45;&gt;index t3_pkey 1259.23376 -->
<g id="edge22" class="edge"><title>constraint t3_pkey on table t3 2606.23377&#45;&gt;index t3_pkey 1259.23376</title>
<path fill="none" stroke="red" d="M4047,-791.766C4047,-779.849 4047,-764.038 4047,-750.482"/>
<polygon fill="red" stroke="red" points="4050.5,-750.21 4047,-740.21 4043.5,-750.21 4050.5,-750.21"/>
<text text-anchor="middle" x="4049.5" y="-760.9" font-family="Times,serif" font-size="14.00">i</text>
</g>
<!-- default for table t3 column id 2604.23374 -->
<g id="node28" class="node"><title>default for table t3 column id 2604.23374</title>
<ellipse fill="none" stroke="black" cx="3277" cy="-810" rx="167.035" ry="18"/>
<text text-anchor="middle" x="3277" y="-804.9" font-family="Times,serif" font-size="14.00">default for table t3 column id 2604.23374</text>
</g>
<!-- default for table t3 column id 2604.23374&#45;&gt;table t3 1259.23371 -->
<g id="edge26" class="edge"><title>default for table t3 column id 2604.23374&#45;&gt;table t3 1259.23371</title>
<path fill="none" stroke="blue" d="M3365.54,-794.722C3463.42,-777.833 3619.4,-750.919 3711.65,-735.002"/>
<polygon fill="blue" stroke="blue" points="3712.49,-738.409 3721.75,-733.259 3711.3,-731.511 3712.49,-738.409"/>
<text text-anchor="middle" x="3580.5" y="-760.9" font-family="Times,serif" font-size="14.00">a</text>
</g>
<!-- function f1(integer) 1255.23358 -->
<g id="node30" class="node"><title>function f1(integer) 1255.23358</title>
<ellipse fill="none" stroke="black" cx="3644" cy="-898" rx="128.839" ry="18"/>
<text text-anchor="middle" x="3644" y="-892.9" font-family="Times,serif" font-size="14.00">function f1(integer) 1255.23358</text>
</g>
<!-- function f1(integer) 1255.23358&#45;&gt;constraint t3_id_check on table t3 2606.23375 -->
<g id="edge28" class="edge"><title>function f1(integer) 1255.23358&#45;&gt;constraint t3_id_check on table t3 2606.23375</title>
<path fill="none" stroke="black" d="M3644,-879.766C3644,-867.849 3644,-852.038 3644,-838.482"/>
<polygon fill="black" stroke="black" points="3647.5,-838.21 3644,-828.21 3640.5,-838.21 3647.5,-838.21"/>
<text text-anchor="middle" x="3647.5" y="-848.9" font-family="Times,serif" font-size="14.00">n</text>
</g>
<!-- rule _RETURN on view v4 2618.23393 -->
<g id="node33" class="node"><title>rule _RETURN on view v4 2618.23393</title>
<ellipse fill="none" stroke="black" cx="3084" cy="-282" rx="158.086" ry="18"/>
<text text-anchor="middle" x="3084" y="-276.9" font-family="Times,serif" font-size="14.00">rule _RETURN on view v4 2618.23393</text>
</g>
<!-- function f1(integer) 1255.23358&#45;&gt;rule _RETURN on view v4 2618.23393 -->
<g id="edge30" class="edge"><title>function f1(integer) 1255.23358&#45;&gt;rule _RETURN on view v4 2618.23393</title>
<path fill="none" stroke="black" d="M3693.62,-881.27C3731.79,-869.19 3786.11,-853.699 3835,-846 3877.41,-839.321 4187.08,-854.325 4221,-828 4243.77,-810.329 4240,-794.82 4240,-766 4240,-766 4240,-766 4240,-370 4240,-320.891 3567.94,-295.51 3248.68,-286.224"/>
<polygon fill="black" stroke="black" points="3248.5,-282.717 3238.4,-285.927 3248.3,-289.715 3248.5,-282.717"/>
<text text-anchor="middle" x="4243.5" y="-584.9" font-family="Times,serif" font-size="14.00">n</text>
</g>
<!-- view v4 1259.23390 -->
<g id="node45" class="node"><title>view v4 1259.23390</title>
<ellipse fill="none" stroke="black" cx="3004" cy="-194" rx="87.0923" ry="18"/>
<text text-anchor="middle" x="3004" y="-188.9" font-family="Times,serif" font-size="14.00">view v4 1259.23390</text>
</g>
<!-- rule _RETURN on view v4 2618.23393&#45;&gt;view v4 1259.23390 -->
<g id="edge40" class="edge"><title>rule _RETURN on view v4 2618.23393&#45;&gt;view v4 1259.23390</title>
<path fill="none" stroke="green" d="M3067.42,-263.766C3055.76,-250.938 3040,-233.599 3027.1,-219.415"/>
<polygon fill="green" stroke="green" points="3029.6,-216.954 3020.28,-211.909 3024.42,-221.663 3029.6,-216.954"/>
<text text-anchor="middle" x="3058" y="-232.9" font-family="Times,serif" font-size="14.00">in</text>
</g>
<!-- view v1 1259.23378 -->
<g id="node37" class="node"><title>view v1 1259.23378</title>
<ellipse fill="none" stroke="black" cx="2211" cy="-722" rx="85.1424" ry="18"/>
<text text-anchor="middle" x="2211" y="-716.9" font-family="Times,serif" font-size="14.00">view v1 1259.23378</text>
</g>
<!-- rule _RETURN on view v1 2618.23381&#45;&gt;view v1 1259.23378 -->
<g id="edge34" class="edge"><title>rule _RETURN on view v1 2618.23381&#45;&gt;view v1 1259.23378</title>
<path fill="none" stroke="green" d="M2211,-791.766C2211,-779.849 2211,-764.038 2211,-750.482"/>
<polygon fill="green" stroke="green" points="2214.5,-750.21 2211,-740.21 2207.5,-750.21 2214.5,-750.21"/>
<text text-anchor="middle" x="2217" y="-760.9" font-family="Times,serif" font-size="14.00">ni</text>
</g>
<!-- rule _RETURN on view v3 2618.23389 -->
<g id="node41" class="node"><title>rule _RETURN on view v3 2618.23389</title>
<ellipse fill="none" stroke="black" cx="2673" cy="-458" rx="156.787" ry="18"/>
<text text-anchor="middle" x="2673" y="-452.9" font-family="Times,serif" font-size="14.00">rule _RETURN on view v3 2618.23389</text>
</g>
<!-- view v1 1259.23378&#45;&gt;rule _RETURN on view v3 2618.23389 -->
<g id="edge90" class="edge"><title>view v1 1259.23378&#45;&gt;rule _RETURN on view v3 2618.23389</title>
<path fill="none" stroke="black" d="M2170.72,-706.066C2147.73,-694.681 2120.82,-676.936 2107,-652 2080.27,-603.787 2067.48,-569.292 2104,-528 2107.7,-523.821 2385.55,-491.133 2551.56,-471.938"/>
<polygon fill="black" stroke="black" points="2552.31,-475.376 2561.84,-470.751 2551.51,-468.422 2552.31,-475.376"/>
<text text-anchor="middle" x="2087.5" y="-584.9" font-family="Times,serif" font-size="14.00">n</text>
</g>
<!-- type v1 1247.23380 -->
<g id="node75" class="node"><title>type v1 1247.23380</title>
<ellipse fill="none" stroke="black" cx="2199" cy="-634" rx="83.1926" ry="18"/>
<text text-anchor="middle" x="2199" y="-628.9" font-family="Times,serif" font-size="14.00">type v1 1247.23380</text>
</g>
<!-- view v1 1259.23378&#45;&gt;type v1 1247.23380 -->
<g id="edge92" class="edge"><title>view v1 1259.23378&#45;&gt;type v1 1247.23380</title>
<path fill="none" stroke="red" d="M2208.51,-703.766C2206.89,-691.849 2204.73,-676.038 2202.88,-662.482"/>
<polygon fill="red" stroke="red" points="2206.3,-661.646 2201.48,-652.21 2199.37,-662.592 2206.3,-661.646"/>
<text text-anchor="middle" x="2209.5" y="-672.9" font-family="Times,serif" font-size="14.00">i</text>
</g>
<!-- view v2 1259.23382 -->
<g id="node40" class="node"><title>view v2 1259.23382</title>
<ellipse fill="none" stroke="black" cx="2659" cy="-546" rx="85.1424" ry="18"/>
<text text-anchor="middle" x="2659" y="-540.9" font-family="Times,serif" font-size="14.00">view v2 1259.23382</text>
</g>
<!-- rule _RETURN on view v2 2618.23385&#45;&gt;view v2 1259.23382 -->
<g id="edge36" class="edge"><title>rule _RETURN on view v2 2618.23385&#45;&gt;view v2 1259.23382</title>
<path fill="none" stroke="green" d="M2641.56,-615.766C2644.57,-603.731 2648.57,-587.725 2651.98,-574.08"/>
<polygon fill="green" stroke="green" points="2655.42,-574.761 2654.45,-564.21 2648.63,-573.063 2655.42,-574.761"/>
<text text-anchor="middle" x="2656" y="-584.9" font-family="Times,serif" font-size="14.00">in</text>
</g>
<!-- view v2 1259.23382&#45;&gt;rule _RETURN on view v3 2618.23389 -->
<g id="edge94" class="edge"><title>view v2 1259.23382&#45;&gt;rule _RETURN on view v3 2618.23389</title>
<path fill="none" stroke="black" d="M2661.9,-527.766C2663.8,-515.849 2666.31,-500.038 2668.47,-486.482"/>
<polygon fill="black" stroke="black" points="2671.99,-486.636 2670.1,-476.21 2665.08,-485.536 2671.99,-486.636"/>
<text text-anchor="middle" x="2671.5" y="-496.9" font-family="Times,serif" font-size="14.00">n</text>
</g>
<!-- type v2 1247.23384 -->
<g id="node78" class="node"><title>type v2 1247.23384</title>
<ellipse fill="none" stroke="black" cx="2414" cy="-458" rx="83.8426" ry="18"/>
<text text-anchor="middle" x="2414" y="-452.9" font-family="Times,serif" font-size="14.00">type v2 1247.23384</text>
</g>
<!-- view v2 1259.23382&#45;&gt;type v2 1247.23384 -->
<g id="edge96" class="edge"><title>view v2 1259.23382&#45;&gt;type v2 1247.23384</title>
<path fill="none" stroke="red" d="M2615.76,-530.47C2574.17,-515.53 2511.21,-492.916 2466.7,-476.929"/>
<polygon fill="red" stroke="red" points="2467.81,-473.609 2457.22,-473.523 2465.44,-480.197 2467.81,-473.609"/>
<text text-anchor="middle" x="2561.5" y="-496.9" font-family="Times,serif" font-size="14.00">i</text>
</g>
<!-- view v3 1259.23386 -->
<g id="node43" class="node"><title>view v3 1259.23386</title>
<ellipse fill="none" stroke="black" cx="2784" cy="-370" rx="85.7924" ry="18"/>
<text text-anchor="middle" x="2784" y="-364.9" font-family="Times,serif" font-size="14.00">view v3 1259.23386</text>
</g>
<!-- rule _RETURN on view v3 2618.23389&#45;&gt;view v3 1259.23386 -->
<g id="edge38" class="edge"><title>rule _RETURN on view v3 2618.23389&#45;&gt;view v3 1259.23386</title>
<path fill="none" stroke="green" d="M2695.73,-439.98C2712.45,-426.723 2735.35,-408.566 2753.64,-394.068"/>
<polygon fill="green" stroke="green" points="2756.02,-396.651 2761.68,-387.696 2751.67,-391.165 2756.02,-396.651"/>
<text text-anchor="middle" x="2745" y="-408.9" font-family="Times,serif" font-size="14.00">ni</text>
</g>
<!-- view v3 1259.23386&#45;&gt;rule _RETURN on view v4 2618.23393 -->
<g id="edge98" class="edge"><title>view v3 1259.23386&#45;&gt;rule _RETURN on view v4 2618.23393</title>
<path fill="none" stroke="black" d="M2834.21,-355.271C2884.33,-340.57 2961.65,-317.89 3016.98,-301.659"/>
<polygon fill="black" stroke="black" points="3018.09,-304.981 3026.7,-298.808 3016.12,-298.264 3018.09,-304.981"/>
<text text-anchor="middle" x="2964.5" y="-320.9" font-family="Times,serif" font-size="14.00">n</text>
</g>
<!-- type v3 1247.23388 -->
<g id="node81" class="node"><title>type v3 1247.23388</title>
<ellipse fill="none" stroke="black" cx="2784" cy="-282" rx="83.1926" ry="18"/>
<text text-anchor="middle" x="2784" y="-276.9" font-family="Times,serif" font-size="14.00">type v3 1247.23388</text>
</g>
<!-- view v3 1259.23386&#45;&gt;type v3 1247.23388 -->
<g id="edge100" class="edge"><title>view v3 1259.23386&#45;&gt;type v3 1247.23388</title>
<path fill="none" stroke="red" d="M2784,-351.766C2784,-339.849 2784,-324.038 2784,-310.482"/>
<polygon fill="red" stroke="red" points="2787.5,-310.21 2784,-300.21 2780.5,-310.21 2787.5,-310.21"/>
<text text-anchor="middle" x="2786.5" y="-320.9" font-family="Times,serif" font-size="14.00">i</text>
</g>
<!-- type v4 1247.23392 -->
<g id="node84" class="node"><title>type v4 1247.23392</title>
<ellipse fill="none" stroke="black" cx="3004" cy="-106" rx="83.9925" ry="18"/>
<text text-anchor="middle" x="3004" y="-100.9" font-family="Times,serif" font-size="14.00">type v4 1247.23392</text>
</g>
<!-- view v4 1259.23390&#45;&gt;type v4 1247.23392 -->
<g id="edge102" class="edge"><title>view v4 1259.23390&#45;&gt;type v4 1247.23392</title>
<path fill="none" stroke="red" d="M3004,-175.766C3004,-163.849 3004,-148.038 3004,-134.482"/>
<polygon fill="red" stroke="red" points="3007.5,-134.21 3004,-124.21 3000.5,-134.21 3007.5,-134.21"/>
<text text-anchor="middle" x="3006.5" y="-144.9" font-family="Times,serif" font-size="14.00">i</text>
</g>
<!-- schema public 2615.2200 -->
<g id="node46" class="node"><title>schema public 2615.2200</title>
<ellipse fill="none" stroke="black" cx="2860" cy="-986" rx="105.941" ry="18"/>
<text text-anchor="middle" x="2860" y="-980.9" font-family="Times,serif" font-size="14.00">schema public 2615.2200</text>
</g>
<!-- schema public 2615.2200&#45;&gt;table t1 1259.23353 -->
<g id="edge46" class="edge"><title>schema public 2615.2200&#45;&gt;table t1 1259.23353</title>
<path fill="none" stroke="black" d="M2760.02,-980.009C2661.88,-973.79 2507.97,-963.139 2375,-950 2256.16,-938.257 2118.95,-920.526 2034.33,-909.106"/>
<polygon fill="black" stroke="black" points="2034.66,-905.618 2024.28,-907.745 2033.72,-912.554 2034.66,-905.618"/>
<text text-anchor="middle" x="2378.5" y="-936.9" font-family="Times,serif" font-size="14.00">n</text>
</g>
<!-- schema public 2615.2200&#45;&gt;table t2 1259.23361 -->
<g id="edge48" class="edge"><title>schema public 2615.2200&#45;&gt;table t2 1259.23361</title>
<path fill="none" stroke="black" d="M2772.87,-975.645C2680.16,-959.957 2535.68,-921.331 2453,-828 2434,-806.551 2428.02,-773.561 2426.31,-750.087"/>
<polygon fill="black" stroke="black" points="2429.8,-749.854 2425.79,-740.047 2422.81,-750.213 2429.8,-749.854"/>
<text text-anchor="middle" x="2489.5" y="-848.9" font-family="Times,serif" font-size="14.00">n</text>
</g>
<!-- schema public 2615.2200&#45;&gt;table t3 1259.23371 -->
<g id="edge50" class="edge"><title>schema public 2615.2200&#45;&gt;table t3 1259.23371</title>
<path fill="none" stroke="black" d="M2964.95,-983.414C3191.98,-977.051 3713.84,-958.002 3782,-916 3833.02,-884.559 3852.74,-849.248 3835,-792 3830,-775.875 3819.87,-760.164 3810.19,-747.725"/>
<polygon fill="black" stroke="black" points="3812.66,-745.217 3803.63,-739.672 3807.23,-749.637 3812.66,-745.217"/>
<text text-anchor="middle" x="3842.5" y="-848.9" font-family="Times,serif" font-size="14.00">n</text>
</g>
<!-- schema public 2615.2200&#45;&gt;function f1(integer) 1255.23358 -->
<g id="edge42" class="edge"><title>schema public 2615.2200&#45;&gt;function f1(integer) 1255.23358</title>
<path fill="none" stroke="black" d="M2948.79,-976.034C3092.66,-959.885 3376.4,-928.037 3533.25,-910.431"/>
<polygon fill="black" stroke="black" points="3533.84,-913.886 3543.39,-909.293 3533.06,-906.93 3533.84,-913.886"/>
<text text-anchor="middle" x="3326.5" y="-936.9" font-family="Times,serif" font-size="14.00">n</text>
</g>
<!-- schema public 2615.2200&#45;&gt;view v1 1259.23378 -->
<g id="edge52" class="edge"><title>schema public 2615.2200&#45;&gt;view v1 1259.23378</title>
<path fill="none" stroke="black" d="M2770.01,-976.435C2723.4,-970.561 2665.76,-961.86 2615,-950 2567.23,-938.84 2552.28,-940.873 2510,-916 2440.34,-875.021 2442.33,-839.576 2377,-792 2351.91,-773.728 2344.35,-770.639 2316,-758 2301.35,-751.466 2285.12,-745.374 2269.89,-740.128"/>
<polygon fill="black" stroke="black" points="2270.64,-736.69 2260.05,-736.807 2268.4,-743.322 2270.64,-736.69"/>
<text text-anchor="middle" x="2450.5" y="-848.9" font-family="Times,serif" font-size="14.00">n</text>
</g>
<!-- schema public 2615.2200&#45;&gt;view v2 1259.23382 -->
<g id="edge54" class="edge"><title>schema public 2615.2200&#45;&gt;view v2 1259.23382</title>
<path fill="none" stroke="black" d="M2847.13,-968.091C2836.11,-950.959 2822,-923.96 2822,-898 2822,-898 2822,-898 2822,-634 2822,-592.467 2780.52,-570.444 2739.41,-558.815"/>
<polygon fill="black" stroke="black" points="2740.11,-555.381 2729.55,-556.214 2738.32,-562.149 2740.11,-555.381"/>
<text text-anchor="middle" x="2825.5" y="-760.9" font-family="Times,serif" font-size="14.00">n</text>
</g>
<!-- schema public 2615.2200&#45;&gt;view v3 1259.23386 -->
<g id="edge56" class="edge"><title>schema public 2615.2200&#45;&gt;view v3 1259.23386</title>
<path fill="none" stroke="black" d="M2860,-967.798C2860,-950.002 2860,-922.139 2860,-898 2860,-898 2860,-898 2860,-458 2860,-431.387 2839.84,-408.846 2820.29,-393.241"/>
<polygon fill="black" stroke="black" points="2822.39,-390.436 2812.3,-387.194 2818.16,-396.018 2822.39,-390.436"/>
<text text-anchor="middle" x="2863.5" y="-672.9" font-family="Times,serif" font-size="14.00">n</text>
</g>
<!-- schema public 2615.2200&#45;&gt;view v4 1259.23390 -->
<g id="edge58" class="edge"><title>schema public 2615.2200&#45;&gt;view v4 1259.23390</title>
<path fill="none" stroke="black" d="M2872.87,-968.091C2883.89,-950.959 2898,-923.96 2898,-898 2898,-898 2898,-898 2898,-282 2898,-250.841 2925.45,-228.606 2952.41,-214.281"/>
<polygon fill="black" stroke="black" points="2954.13,-217.337 2961.5,-209.725 2950.99,-211.08 2954.13,-217.337"/>
<text text-anchor="middle" x="2901.5" y="-584.9" font-family="Times,serif" font-size="14.00">n</text>
</g>
<!-- sequence s1 1259.23359 -->
<g id="node49" class="node"><title>sequence s1 1259.23359</title>
<ellipse fill="none" stroke="black" cx="3027" cy="-898" rx="100.892" ry="18"/>
<text text-anchor="middle" x="3027" y="-892.9" font-family="Times,serif" font-size="14.00">sequence s1 1259.23359</text>
</g>
<!-- schema public 2615.2200&#45;&gt;sequence s1 1259.23359 -->
<g id="edge44" class="edge"><title>schema public 2615.2200&#45;&gt;sequence s1 1259.23359</title>
<path fill="none" stroke="black" d="M2892.6,-968.824C2919.15,-954.832 2956.81,-934.989 2985.51,-919.864"/>
<polygon fill="black" stroke="black" points="2987.27,-922.891 2994.49,-915.133 2984.01,-916.698 2987.27,-922.891"/>
<text text-anchor="middle" x="2962.5" y="-936.9" font-family="Times,serif" font-size="14.00">n</text>
</g>
<!-- sequence s1 1259.23359&#45;&gt;default for table t3 column id 2604.23374 -->
<g id="edge60" class="edge"><title>sequence s1 1259.23359&#45;&gt;default for table t3 column id 2604.23374</title>
<path fill="none" stroke="black" d="M3072.85,-881.859C3113.83,-867.437 3174.08,-846.229 3218.51,-830.59"/>
<polygon fill="black" stroke="black" points="3219.75,-833.863 3228.02,-827.242 3217.42,-827.261 3219.75,-833.863"/>
<text text-anchor="middle" x="3178.5" y="-848.9" font-family="Times,serif" font-size="14.00">n</text>
</g>
<!-- type s1 1247.23360 -->
<g id="node59" class="node"><title>type s1 1247.23360</title>
<ellipse fill="none" stroke="black" cx="3009" cy="-810" rx="83.1926" ry="18"/>
<text text-anchor="middle" x="3009" y="-804.9" font-family="Times,serif" font-size="14.00">type s1 1247.23360</text>
</g>
<!-- sequence s1 1259.23359&#45;&gt;type s1 1247.23360 -->
<g id="edge62" class="edge"><title>sequence s1 1259.23359&#45;&gt;type s1 1247.23360</title>
<path fill="none" stroke="red" d="M3023.27,-879.766C3020.81,-867.731 3017.53,-851.725 3014.74,-838.08"/>
<polygon fill="red" stroke="red" points="3018.16,-837.306 3012.72,-828.21 3011.3,-838.709 3018.16,-837.306"/>
<text text-anchor="middle" x="3022.5" y="-848.9" font-family="Times,serif" font-size="14.00">i</text>
</g>
<!-- type t1[] 1247.23354 -->
<g id="node70" class="node"><title>type t1[] 1247.23354</title>
<ellipse fill="none" stroke="black" cx="2019" cy="-722" rx="89.0421" ry="18"/>
<text text-anchor="middle" x="2019" y="-716.9" font-family="Times,serif" font-size="14.00">type t1[] 1247.23354</text>
</g>
<!-- type t1 1247.23355&#45;&gt;type t1[] 1247.23354 -->
<g id="edge76" class="edge"><title>type t1 1247.23355&#45;&gt;type t1[] 1247.23354</title>
<path fill="none" stroke="red" d="M1967.15,-792.192C1976.43,-779.632 1989.02,-762.594 1999.46,-748.45"/>
<polygon fill="red" stroke="red" points="2002.52,-750.207 2005.64,-740.084 1996.89,-746.048 2002.52,-750.207"/>
<text text-anchor="middle" x="1995.5" y="-760.9" font-family="Times,serif" font-size="14.00">i</text>
</g>
<!-- type t2[] 1247.23362 -->
<g id="node72" class="node"><title>type t2[] 1247.23362</title>
<ellipse fill="none" stroke="black" cx="2396" cy="-546" rx="87.2408" ry="18"/>
<text text-anchor="middle" x="2396" y="-540.9" font-family="Times,serif" font-size="14.00">type t2[] 1247.23362</text>
</g>
<!-- type t2 1247.23363&#45;&gt;type t2[] 1247.23362 -->
<g id="edge78" class="edge"><title>type t2 1247.23363&#45;&gt;type t2[] 1247.23362</title>
<path fill="none" stroke="red" d="M2384.11,-615.766C2386.16,-603.731 2388.89,-587.725 2391.21,-574.08"/>
<polygon fill="red" stroke="red" points="2394.67,-574.656 2392.9,-564.21 2387.77,-573.48 2394.67,-574.656"/>
<text text-anchor="middle" x="2392.5" y="-584.9" font-family="Times,serif" font-size="14.00">i</text>
</g>
<!-- type t3[] 1247.23372 -->
<g id="node74" class="node"><title>type t3[] 1247.23372</title>
<ellipse fill="none" stroke="black" cx="3787" cy="-546" rx="87.0923" ry="18"/>
<text text-anchor="middle" x="3787" y="-540.9" font-family="Times,serif" font-size="14.00">type t3[] 1247.23372</text>
</g>
<!-- type t3 1247.23373&#45;&gt;type t3[] 1247.23372 -->
<g id="edge80" class="edge"><title>type t3 1247.23373&#45;&gt;type t3[] 1247.23372</title>
<path fill="none" stroke="red" d="M3787,-615.766C3787,-603.849 3787,-588.038 3787,-574.482"/>
<polygon fill="red" stroke="red" points="3790.5,-574.21 3787,-564.21 3783.5,-574.21 3790.5,-574.21"/>
<text text-anchor="middle" x="3789.5" y="-584.9" font-family="Times,serif" font-size="14.00">i</text>
</g>
<!-- type v1[] 1247.23379 -->
<g id="node77" class="node"><title>type v1[] 1247.23379</title>
<ellipse fill="none" stroke="black" cx="2202" cy="-546" rx="89.191" ry="18"/>
<text text-anchor="middle" x="2202" y="-540.9" font-family="Times,serif" font-size="14.00">type v1[] 1247.23379</text>
</g>
<!-- type v1 1247.23380&#45;&gt;type v1[] 1247.23379 -->
<g id="edge82" class="edge"><title>type v1 1247.23380&#45;&gt;type v1[] 1247.23379</title>
<path fill="none" stroke="red" d="M2199.62,-615.766C2200.03,-603.849 2200.57,-588.038 2201.03,-574.482"/>
<polygon fill="red" stroke="red" points="2204.54,-574.324 2201.38,-564.21 2197.54,-574.085 2204.54,-574.324"/>
<text text-anchor="middle" x="2203.5" y="-584.9" font-family="Times,serif" font-size="14.00">i</text>
</g>
<!-- type v2[] 1247.23383 -->
<g id="node80" class="node"><title>type v2[] 1247.23383</title>
<ellipse fill="none" stroke="black" cx="2414" cy="-370" rx="89.0421" ry="18"/>
<text text-anchor="middle" x="2414" y="-364.9" font-family="Times,serif" font-size="14.00">type v2[] 1247.23383</text>
</g>
<!-- type v2 1247.23384&#45;&gt;type v2[] 1247.23383 -->
<g id="edge84" class="edge"><title>type v2 1247.23384&#45;&gt;type v2[] 1247.23383</title>
<path fill="none" stroke="red" d="M2414,-439.766C2414,-427.849 2414,-412.038 2414,-398.482"/>
<polygon fill="red" stroke="red" points="2417.5,-398.21 2414,-388.21 2410.5,-398.21 2417.5,-398.21"/>
<text text-anchor="middle" x="2416.5" y="-408.9" font-family="Times,serif" font-size="14.00">i</text>
</g>
<!-- type v3[] 1247.23387 -->
<g id="node83" class="node"><title>type v3[] 1247.23387</title>
<ellipse fill="none" stroke="black" cx="2784" cy="-194" rx="89.0421" ry="18"/>
<text text-anchor="middle" x="2784" y="-188.9" font-family="Times,serif" font-size="14.00">type v3[] 1247.23387</text>
</g>
<!-- type v3 1247.23388&#45;&gt;type v3[] 1247.23387 -->
<g id="edge86" class="edge"><title>type v3 1247.23388&#45;&gt;type v3[] 1247.23387</title>
<path fill="none" stroke="red" d="M2784,-263.766C2784,-251.849 2784,-236.038 2784,-222.482"/>
<polygon fill="red" stroke="red" points="2787.5,-222.21 2784,-212.21 2780.5,-222.21 2787.5,-222.21"/>
<text text-anchor="middle" x="2786.5" y="-232.9" font-family="Times,serif" font-size="14.00">i</text>
</g>
<!-- type v4[] 1247.23391 -->
<g id="node86" class="node"><title>type v4[] 1247.23391</title>
<ellipse fill="none" stroke="black" cx="3004" cy="-18" rx="90.9919" ry="18"/>
<text text-anchor="middle" x="3004" y="-12.9" font-family="Times,serif" font-size="14.00">type v4[] 1247.23391</text>
</g>
<!-- type v4 1247.23392&#45;&gt;type v4[] 1247.23391 -->
<g id="edge88" class="edge"><title>type v4 1247.23392&#45;&gt;type v4[] 1247.23391</title>
<path fill="none" stroke="red" d="M3004,-87.7663C3004,-75.8492 3004,-60.0384 3004,-46.4817"/>
<polygon fill="red" stroke="red" points="3007.5,-46.2103 3004,-36.2103 3000.5,-46.2103 3007.5,-46.2103"/>
<text text-anchor="middle" x="3006.5" y="-56.9" font-family="Times,serif" font-size="14.00">i</text>
</g>
</g>
</svg>
