<?xml version="1.0" encoding="UTF-8" standalone="no"?>
<!DOCTYPE svg PUBLIC "-//W3C//DTD SVG 1.1//EN"
 "http://www.w3.org/Graphics/SVG/1.1/DTD/svg11.dtd">
<!-- Generated by graphviz version 2.26.3 (20100126.1600)
 -->
<!-- Title: pg_depend Pages: 1 -->
<svg width="5248pt" height="484pt"
 viewBox="0.00 0.00 5248.00 484.00" xmlns="http://www.w3.org/2000/svg" xmlns:xlink="http://www.w3.org/1999/xlink">
<g id="graph1" class="graph" transform="scale(1 1) rotate(0) translate(4 480)">
<title>pg_depend</title>
<polygon fill="white" stroke="white" points="-4,5 -4,-480 5245,-480 5245,5 -4,5"/>
<!-- constraint t1_pkey on table t1 2606.23316 -->
<g id="node1" class="node"><title>constraint t1_pkey on table t1 2606.23316</title>
<ellipse fill="none" stroke="black" cx="761" cy="-282" rx="165.235" ry="18"/>
<text text-anchor="middle" x="761" y="-276.9" font-family="Times,serif" font-size="14.00">constraint t1_pkey on table t1 2606.23316</text>
</g>
<!-- index t1_pkey 1259.23315 -->
<g id="node3" class="node"><title>index t1_pkey 1259.23315</title>
<ellipse fill="none" stroke="black" cx="804" cy="-194" rx="108.04" ry="18"/>
<text text-anchor="middle" x="804" y="-188.9" font-family="Times,serif" font-size="14.00">index t1_pkey 1259.23315</text>
</g>
<!-- constraint t1_pkey on table t1 2606.23316&#45;&gt;index t1_pkey 1259.23315 -->
<g id="edge2" class="edge"><title>constraint t1_pkey on table t1 2606.23316&#45;&gt;index t1_pkey 1259.23315</title>
<path fill="none" stroke="red" d="M769.91,-263.766C775.906,-251.495 783.919,-235.096 790.67,-221.28"/>
<polygon fill="red" stroke="red" points="793.856,-222.732 795.102,-212.21 787.567,-219.658 793.856,-222.732"/>
<text text-anchor="middle" x="789.5" y="-232.9" font-family="Times,serif" font-size="14.00">i</text>
</g>
<!-- constraint t2_id_fkey on table t2 2606.23322 -->
<g id="node4" class="node"><title>constraint t2_id_fkey on table t2 2606.23322</title>
<ellipse fill="none" stroke="black" cx="954" cy="-106" rx="176.134" ry="18"/>
<text text-anchor="middle" x="954" y="-100.9" font-family="Times,serif" font-size="14.00">constraint t2_id_fkey on table t2 2606.23322</text>
</g>
<!-- index t1_pkey 1259.23315&#45;&gt;constraint t2_id_fkey on table t2 2606.23322 -->
<g id="edge20" class="edge"><title>index t1_pkey 1259.23315&#45;&gt;constraint t2_id_fkey on table t2 2606.23322</title>
<path fill="none" stroke="black" d="M833.635,-176.614C856.93,-162.948 889.576,-143.795 914.993,-128.884"/>
<polygon fill="black" stroke="black" points="916.801,-131.881 923.655,-123.802 913.259,-125.844 916.801,-131.881"/>
<text text-anchor="middle" x="896.5" y="-144.9" font-family="Times,serif" font-size="14.00">n</text>
</g>
<!-- trigger RI_ConstraintTrigger_23323 on table t2 2620.23323 -->
<g id="node6" class="node"><title>trigger RI_ConstraintTrigger_23323 on table t2 2620.23323</title>
<ellipse fill="none" stroke="black" cx="231" cy="-18" rx="230.88" ry="18"/>
<text text-anchor="middle" x="231" y="-12.9" font-family="Times,serif" font-size="14.00">trigger RI_ConstraintTrigger_23323 on table t2 2620.23323</text>
</g>
<!-- constraint t2_id_fkey on table t2 2606.23322&#45;&gt;trigger RI_ConstraintTrigger_23323 on table t2 2620.23323 -->
<g id="edge4" class="edge"><title>constraint t2_id_fkey on table t2 2606.23322&#45;&gt;trigger RI_ConstraintTrigger_23323 on table t2 2620.23323</title>
<path fill="none" stroke="red" d="M840.634,-92.2016C712.108,-76.5581 502.714,-51.0717 365.893,-34.4186"/>
<polygon fill="red" stroke="red" points="366.11,-30.9192 355.76,-33.1852 365.264,-37.8679 366.11,-30.9192"/>
<text text-anchor="middle" x="660.5" y="-56.9" font-family="Times,serif" font-size="14.00">i</text>
</g>
<!-- trigger RI_ConstraintTrigger_23324 on table t2 2620.23324 -->
<g id="node8" class="node"><title>trigger RI_ConstraintTrigger_23324 on table t2 2620.23324</title>
<ellipse fill="none" stroke="black" cx="713" cy="-18" rx="232.83" ry="18"/>
<text text-anchor="middle" x="713" y="-12.9" font-family="Times,serif" font-size="14.00">trigger RI_ConstraintTrigger_23324 on table t2 2620.23324</text>
</g>
<!-- constraint t2_id_fkey on table t2 2606.23322&#45;&gt;trigger RI_ConstraintTrigger_23324 on table t2 2620.23324 -->
<g id="edge6" class="edge"><title>constraint t2_id_fkey on table t2 2606.23322&#45;&gt;trigger RI_ConstraintTrigger_23324 on table t2 2620.23324</title>
<path fill="none" stroke="red" d="M906.386,-88.614C867.443,-74.3943 812.232,-54.2342 770.766,-39.0928"/>
<polygon fill="red" stroke="red" points="771.934,-35.7934 761.34,-35.6511 769.533,-42.3688 771.934,-35.7934"/>
<text text-anchor="middle" x="858.5" y="-56.9" font-family="Times,serif" font-size="14.00">i</text>
</g>
<!-- trigger RI_ConstraintTrigger_23325 on table t1 2620.23325 -->
<g id="node10" class="node"><title>trigger RI_ConstraintTrigger_23325 on table t1 2620.23325</title>
<ellipse fill="none" stroke="black" cx="1196" cy="-18" rx="232.029" ry="18"/>
<text text-anchor="middle" x="1196" y="-12.9" font-family="Times,serif" font-size="14.00">trigger RI_ConstraintTrigger_23325 on table t1 2620.23325</text>
</g>
<!-- constraint t2_id_fkey on table t2 2606.23322&#45;&gt;trigger RI_ConstraintTrigger_23325 on table t1 2620.23325 -->
<g id="edge8" class="edge"><title>constraint t2_id_fkey on table t2 2606.23322&#45;&gt;trigger RI_ConstraintTrigger_23325 on table t1 2620.23325</title>
<path fill="none" stroke="red" d="M1001.81,-88.614C1040.92,-74.3943 1096.36,-54.2342 1137.99,-39.0928"/>
<polygon fill="red" stroke="red" points="1139.26,-42.3578 1147.46,-35.6511 1136.87,-35.7793 1139.26,-42.3578"/>
<text text-anchor="middle" x="1098.5" y="-56.9" font-family="Times,serif" font-size="14.00">i</text>
</g>
<!-- trigger RI_ConstraintTrigger_23326 on table t1 2620.23326 -->
<g id="node12" class="node"><title>trigger RI_ConstraintTrigger_23326 on table t1 2620.23326</title>
<ellipse fill="none" stroke="black" cx="1678" cy="-18" rx="232.029" ry="18"/>
<text text-anchor="middle" x="1678" y="-12.9" font-family="Times,serif" font-size="14.00">trigger RI_ConstraintTrigger_23326 on table t1 2620.23326</text>
</g>
<!-- constraint t2_id_fkey on table t2 2606.23322&#45;&gt;trigger RI_ConstraintTrigger_23326 on table t1 2620.23326 -->
<g id="edge10" class="edge"><title>constraint t2_id_fkey on table t2 2606.23322&#45;&gt;trigger RI_ConstraintTrigger_23326 on table t1 2620.23326</title>
<path fill="none" stroke="red" d="M1067.52,-92.2016C1196.23,-76.5581 1405.91,-51.0717 1542.92,-34.4186"/>
<polygon fill="red" stroke="red" points="1543.56,-37.8663 1553.07,-33.1852 1542.72,-30.9175 1543.56,-37.8663"/>
<text text-anchor="middle" x="1382.5" y="-56.9" font-family="Times,serif" font-size="14.00">i</text>
</g>
<!-- constraint t2_pkey on table t2 2606.23321 -->
<g id="node13" class="node"><title>constraint t2_pkey on table t2 2606.23321</title>
<ellipse fill="none" stroke="black" cx="1883" cy="-282" rx="165.085" ry="18"/>
<text text-anchor="middle" x="1883" y="-276.9" font-family="Times,serif" font-size="14.00">constraint t2_pkey on table t2 2606.23321</text>
</g>
<!-- index t2_pkey 1259.23320 -->
<g id="node15" class="node"><title>index t2_pkey 1259.23320</title>
<ellipse fill="none" stroke="black" cx="1883" cy="-194" rx="108.04" ry="18"/>
<text text-anchor="middle" x="1883" y="-188.9" font-family="Times,serif" font-size="14.00">index t2_pkey 1259.23320</text>
</g>
<!-- constraint t2_pkey on table t2 2606.23321&#45;&gt;index t2_pkey 1259.23320 -->
<g id="edge12" class="edge"><title>constraint t2_pkey on table t2 2606.23321&#45;&gt;index t2_pkey 1259.23320</title>
<path fill="none" stroke="red" d="M1883,-263.766C1883,-251.849 1883,-236.038 1883,-222.482"/>
<polygon fill="red" stroke="red" points="1886.5,-222.21 1883,-212.21 1879.5,-222.21 1886.5,-222.21"/>
<text text-anchor="middle" x="1885.5" y="-232.9" font-family="Times,serif" font-size="14.00">i</text>
</g>
<!-- constraint t3_pkey on table t3 2606.23352 -->
<g id="node16" class="node"><title>constraint t3_pkey on table t3 2606.23352</title>
<ellipse fill="none" stroke="black" cx="3261" cy="-282" rx="165.235" ry="18"/>
<text text-anchor="middle" x="3261" y="-276.9" font-family="Times,serif" font-size="14.00">constraint t3_pkey on table t3 2606.23352</text>
</g>
<!-- index t3_pkey 1259.23351 -->
<g id="node18" class="node"><title>index t3_pkey 1259.23351</title>
<ellipse fill="none" stroke="black" cx="3261" cy="-194" rx="108.04" ry="18"/>
<text text-anchor="middle" x="3261" y="-188.9" font-family="Times,serif" font-size="14.00">index t3_pkey 1259.23351</text>
</g>
<!-- constraint t3_pkey on table t3 2606.23352&#45;&gt;index t3_pkey 1259.23351 -->
<g id="edge14" class="edge"><title>constraint t3_pkey on table t3 2606.23352&#45;&gt;index t3_pkey 1259.23351</title>
<path fill="none" stroke="red" d="M3261,-263.766C3261,-251.849 3261,-236.038 3261,-222.482"/>
<polygon fill="red" stroke="red" points="3264.5,-222.21 3261,-212.21 3257.5,-222.21 3264.5,-222.21"/>
<text text-anchor="middle" x="3263.5" y="-232.9" font-family="Times,serif" font-size="14.00">i</text>
</g>
<!-- function f1(integer) 1255.23339 -->
<g id="node19" class="node"><title>function f1(integer) 1255.23339</title>
<ellipse fill="none" stroke="black" cx="4214" cy="-370" rx="128.839" ry="18"/>
<text text-anchor="middle" x="4214" y="-364.9" font-family="Times,serif" font-size="14.00">function f1(integer) 1255.23339</text>
</g>
<!-- constraint t3_id_check on table t3 2606.23350 -->
<g id="node21" class="node"><title>constraint t3_id_check on table t3 2606.23350</title>
<ellipse fill="none" stroke="black" cx="4160" cy="-282" rx="182.133" ry="18"/>
<text text-anchor="middle" x="4160" y="-276.9" font-family="Times,serif" font-size="14.00">constraint t3_id_check on table t3 2606.23350</text>
</g>
<!-- function f1(integer) 1255.23339&#45;&gt;constraint t3_id_check on table t3 2606.23350 -->
<g id="edge16" class="edge"><title>function f1(integer) 1255.23339&#45;&gt;constraint t3_id_check on table t3 2606.23350</title>
<path fill="none" stroke="black" d="M4208.03,-351.956C4204.2,-341.608 4198.7,-328.608 4192,-318 4189.85,-314.598 4187.38,-311.202 4184.78,-307.932"/>
<polygon fill="black" stroke="black" points="4187.31,-305.5 4178.18,-300.125 4181.96,-310.02 4187.31,-305.5"/>
<text text-anchor="middle" x="4203.5" y="-320.9" font-family="Times,serif" font-size="14.00">n</text>
</g>
<!-- rule _RETURN on view v4 2618.23343 -->
<g id="node23" class="node"><title>rule _RETURN on view v4 2618.23343</title>
<ellipse fill="none" stroke="black" cx="4887" cy="-282" rx="159.236" ry="18"/>
<text text-anchor="middle" x="4887" y="-276.9" font-family="Times,serif" font-size="14.00">rule _RETURN on view v4 2618.23343</text>
</g>
<!-- function f1(integer) 1255.23339&#45;&gt;rule _RETURN on view v4 2618.23343 -->
<g id="edge18" class="edge"><title>function f1(integer) 1255.23339&#45;&gt;rule _RETURN on view v4 2618.23343</title>
<path fill="none" stroke="black" d="M4294.44,-355.899C4360.52,-344.631 4456.63,-328.965 4541,-318 4619.85,-307.752 4639.91,-308.236 4719,-300 4732.87,-298.556 4747.38,-297.028 4761.81,-295.496"/>
<polygon fill="black" stroke="black" points="4762.21,-298.973 4771.78,-294.436 4761.47,-292.013 4762.21,-298.973"/>
<text text-anchor="middle" x="4544.5" y="-320.9" font-family="Times,serif" font-size="14.00">n</text>
</g>
<!-- schema public 2615.2200 -->
<g id="node25" class="node"><title>schema public 2615.2200</title>
<ellipse fill="none" stroke="black" cx="3573" cy="-458" rx="105.941" ry="18"/>
<text text-anchor="middle" x="3573" y="-452.9" font-family="Times,serif" font-size="14.00">schema public 2615.2200</text>
</g>
<!-- schema public 2615.2200&#45;&gt;function f1(integer) 1255.23339 -->
<g id="edge22" class="edge"><title>schema public 2615.2200&#45;&gt;function f1(integer) 1255.23339</title>
<path fill="none" stroke="black" d="M3655.49,-446.676C3772.19,-430.653 3985.37,-401.388 4111.9,-384.016"/>
<polygon fill="black" stroke="black" points="4112.56,-387.459 4121.99,-382.631 4111.61,-380.524 4112.56,-387.459"/>
<text text-anchor="middle" x="3953.5" y="-408.9" font-family="Times,serif" font-size="14.00">n</text>
</g>
<!-- sequence s1 1259.23344 -->
<g id="node28" class="node"><title>sequence s1 1259.23344</title>
<ellipse fill="none" stroke="black" cx="3793" cy="-370" rx="102.19" ry="18"/>
<text text-anchor="middle" x="3793" y="-364.9" font-family="Times,serif" font-size="14.00">sequence s1 1259.23344</text>
</g>
<!-- schema public 2615.2200&#45;&gt;sequence s1 1259.23344 -->
<g id="edge24" class="edge"><title>schema public 2615.2200&#45;&gt;sequence s1 1259.23344</title>
<path fill="none" stroke="black" d="M3614.64,-441.344C3650.81,-426.875 3703.33,-405.868 3742.01,-390.395"/>
<polygon fill="black" stroke="black" points="3743.55,-393.551 3751.53,-386.587 3740.95,-387.052 3743.55,-393.551"/>
<text text-anchor="middle" x="3705.5" y="-408.9" font-family="Times,serif" font-size="14.00">n</text>
</g>
<!-- table t1 1259.23312 -->
<g id="node30" class="node"><title>table t1 1259.23312</title>
<ellipse fill="none" stroke="black" cx="1064" cy="-370" rx="83.1926" ry="18"/>
<text text-anchor="middle" x="1064" y="-364.9" font-family="Times,serif" font-size="14.00">table t1 1259.23312</text>
</g>
<!-- schema public 2615.2200&#45;&gt;table t1 1259.23312 -->
<g id="edge26" class="edge"><title>schema public 2615.2200&#45;&gt;table t1 1259.23312</title>
<path fill="none" stroke="black" d="M3468.11,-455.182C3259.9,-449.514 2779.61,-436.067 2376,-422 1917.9,-406.033 1369.98,-383.067 1155.99,-373.948"/>
<polygon fill="black" stroke="black" points="1155.88,-370.441 1145.74,-373.511 1155.58,-377.434 1155.88,-370.441"/>
<text text-anchor="middle" x="2379.5" y="-408.9" font-family="Times,serif" font-size="14.00">n</text>
</g>
<!-- table t2 1259.23317 -->
<g id="node32" class="node"><title>table t2 1259.23317</title>
<ellipse fill="none" stroke="black" cx="2147" cy="-370" rx="83.1926" ry="18"/>
<text text-anchor="middle" x="2147" y="-364.9" font-family="Times,serif" font-size="14.00">table t2 1259.23317</text>
</g>
<!-- schema public 2615.2200&#45;&gt;table t2 1259.23317 -->
<g id="edge28" class="edge"><title>schema public 2615.2200&#45;&gt;table t2 1259.23317</title>
<path fill="none" stroke="black" d="M3473.29,-451.847C3208.5,-435.507 2490.63,-391.206 2237.13,-375.562"/>
<polygon fill="black" stroke="black" points="2237.06,-372.051 2226.86,-374.928 2236.63,-379.038 2237.06,-372.051"/>
<text text-anchor="middle" x="2990.5" y="-408.9" font-family="Times,serif" font-size="14.00">n</text>
</g>
<!-- table t3 1259.23346 -->
<g id="node34" class="node"><title>table t3 1259.23346</title>
<ellipse fill="none" stroke="black" cx="3573" cy="-370" rx="83.9925" ry="18"/>
<text text-anchor="middle" x="3573" y="-364.9" font-family="Times,serif" font-size="14.00">table t3 1259.23346</text>
</g>
<!-- schema public 2615.2200&#45;&gt;table t3 1259.23346 -->
<g id="edge30" class="edge"><title>schema public 2615.2200&#45;&gt;table t3 1259.23346</title>
<path fill="none" stroke="black" d="M3573,-439.766C3573,-427.849 3573,-412.038 3573,-398.482"/>
<polygon fill="black" stroke="black" points="3576.5,-398.21 3573,-388.21 3569.5,-398.21 3576.5,-398.21"/>
<text text-anchor="middle" x="3576.5" y="-408.9" font-family="Times,serif" font-size="14.00">n</text>
</g>
<!-- view v1 1259.23327 -->
<g id="node36" class="node"><title>view v1 1259.23327</title>
<ellipse fill="none" stroke="black" cx="1793" cy="-370" rx="85.1424" ry="18"/>
<text text-anchor="middle" x="1793" y="-364.9" font-family="Times,serif" font-size="14.00">view v1 1259.23327</text>
</g>
<!-- schema public 2615.2200&#45;&gt;view v1 1259.23327 -->
<g id="edge32" class="edge"><title>schema public 2615.2200&#45;&gt;view v1 1259.23327</title>
<path fill="none" stroke="black" d="M3468.96,-454.187C3222.98,-444.958 2586.31,-419.811 2055,-388 1998.05,-384.59 1934.18,-380.213 1883.76,-376.629"/>
<polygon fill="black" stroke="black" points="1883.76,-373.121 1873.53,-375.901 1883.26,-380.103 1883.76,-373.121"/>
<text text-anchor="middle" x="2683.5" y="-408.9" font-family="Times,serif" font-size="14.00">n</text>
</g>
<!-- view v2 1259.23331 -->
<g id="node38" class="node"><title>view v2 1259.23331</title>
<ellipse fill="none" stroke="black" cx="2793" cy="-370" rx="85.1424" ry="18"/>
<text text-anchor="middle" x="2793" y="-364.9" font-family="Times,serif" font-size="14.00">view v2 1259.23331</text>
</g>
<!-- schema public 2615.2200&#45;&gt;view v2 1259.23331 -->
<g id="edge34" class="edge"><title>schema public 2615.2200&#45;&gt;view v2 1259.23331</title>
<path fill="none" stroke="black" d="M3484.66,-448.034C3333.48,-430.977 3027.07,-396.408 2878.12,-379.603"/>
<polygon fill="black" stroke="black" points="2878.43,-376.117 2868.11,-378.473 2877.65,-383.073 2878.43,-376.117"/>
<text text-anchor="middle" x="3255.5" y="-408.9" font-family="Times,serif" font-size="14.00">n</text>
</g>
<!-- view v3 1259.23335 -->
<g id="node40" class="node"><title>view v3 1259.23335</title>
<ellipse fill="none" stroke="black" cx="4500" cy="-370" rx="85.7924" ry="18"/>
<text text-anchor="middle" x="4500" y="-364.9" font-family="Times,serif" font-size="14.00">view v3 1259.23335</text>
</g>
<!-- schema public 2615.2200&#45;&gt;view v3 1259.23335 -->
<g id="edge36" class="edge"><title>schema public 2615.2200&#45;&gt;view v3 1259.23335</title>
<path fill="none" stroke="black" d="M3669.04,-450.347C3816.19,-438.4 4106.24,-413.981 4352,-388 4372.79,-385.802 4395.2,-383.199 4416.13,-380.665"/>
<polygon fill="black" stroke="black" points="4416.77,-384.113 4426.28,-379.429 4415.93,-377.164 4416.77,-384.113"/>
<text text-anchor="middle" x="4162.5" y="-408.9" font-family="Times,serif" font-size="14.00">n</text>
</g>
<!-- view v4 1259.23340 -->
<g id="node42" class="node"><title>view v4 1259.23340</title>
<ellipse fill="none" stroke="black" cx="4887" cy="-370" rx="87.2408" ry="18"/>
<text text-anchor="middle" x="4887" y="-364.9" font-family="Times,serif" font-size="14.00">view v4 1259.23340</text>
</g>
<!-- schema public 2615.2200&#45;&gt;view v4 1259.23340 -->
<g id="edge38" class="edge"><title>schema public 2615.2200&#45;&gt;view v4 1259.23340</title>
<path fill="none" stroke="black" d="M3673.64,-452.306C3792.32,-445.504 3995.55,-433.585 4170,-422 4394.76,-407.074 4658.98,-387.348 4795.31,-377.009"/>
<polygon fill="black" stroke="black" points="4795.59,-380.497 4805.3,-376.25 4795.06,-373.517 4795.59,-380.497"/>
<text text-anchor="middle" x="4389.5" y="-408.9" font-family="Times,serif" font-size="14.00">n</text>
</g>
<!-- default for table t3 column id 2604.23349 -->
<g id="node44" class="node"><title>default for table t3 column id 2604.23349</title>
<ellipse fill="none" stroke="black" cx="3793" cy="-282" rx="167.185" ry="18"/>
<text text-anchor="middle" x="3793" y="-276.9" font-family="Times,serif" font-size="14.00">default for table t3 column id 2604.23349</text>
</g>
<!-- sequence s1 1259.23344&#45;&gt;default for table t3 column id 2604.23349 -->
<g id="edge40" class="edge"><title>sequence s1 1259.23344&#45;&gt;default for table t3 column id 2604.23349</title>
<path fill="none" stroke="black" d="M3793,-351.766C3793,-339.849 3793,-324.038 3793,-310.482"/>
<polygon fill="black" stroke="black" points="3796.5,-310.21 3793,-300.21 3789.5,-310.21 3796.5,-310.21"/>
<text text-anchor="middle" x="3796.5" y="-320.9" font-family="Times,serif" font-size="14.00">n</text>
</g>
<!-- type s1 1247.23345 -->
<g id="node46" class="node"><title>type s1 1247.23345</title>
<ellipse fill="none" stroke="black" cx="4443" cy="-282" rx="83.1926" ry="18"/>
<text text-anchor="middle" x="4443" y="-276.9" font-family="Times,serif" font-size="14.00">type s1 1247.23345</text>
</g>
<!-- sequence s1 1259.23344&#45;&gt;type s1 1247.23345 -->
<g id="edge42" class="edge"><title>sequence s1 1259.23344&#45;&gt;type s1 1247.23345</title>
<path fill="none" stroke="red" d="M3875.35,-359.222C3989.61,-344.27 4183.22,-318.946 4191,-318 4262.04,-309.364 4280.27,-310.879 4351,-300 4358.08,-298.911 4365.44,-297.665 4372.78,-296.348"/>
<polygon fill="red" stroke="red" points="4373.55,-299.766 4382.75,-294.515 4372.28,-292.881 4373.55,-299.766"/>
<text text-anchor="middle" x="4193.5" y="-320.9" font-family="Times,serif" font-size="14.00">i</text>
</g>
<!-- table t1 1259.23312&#45;&gt;constraint t1_pkey on table t1 2606.23316 -->
<g id="edge44" class="edge"><title>table t1 1259.23312&#45;&gt;constraint t1_pkey on table t1 2606.23316</title>
<path fill="none" stroke="blue" d="M1011.64,-355.939C987.638,-349.408 958.835,-341.454 933,-334 897.416,-323.733 857.846,-311.806 825.639,-301.966"/>
<polygon fill="blue" stroke="blue" points="826.479,-298.563 815.893,-298.983 824.431,-305.256 826.479,-298.563"/>
<text text-anchor="middle" x="936.5" y="-320.9" font-family="Times,serif" font-size="14.00">a</text>
</g>
<!-- table t1 1259.23312&#45;&gt;constraint t2_id_fkey on table t2 2606.23322 -->
<g id="edge46" class="edge"><title>table t1 1259.23312&#45;&gt;constraint t2_id_fkey on table t2 2606.23322</title>
<path fill="none" stroke="black" d="M1030.52,-353.373C1010.28,-341.442 985.954,-323.357 973,-300 943.757,-247.272 946.015,-173.972 950.091,-134.273"/>
<polygon fill="black" stroke="black" points="953.58,-134.575 951.236,-124.243 946.625,-133.782 953.58,-134.575"/>
<text text-anchor="middle" x="957.5" y="-232.9" font-family="Times,serif" font-size="14.00">n</text>
</g>
<!-- rule _RETURN on view v1 2618.23330 -->
<g id="node50" class="node"><title>rule _RETURN on view v1 2618.23330</title>
<ellipse fill="none" stroke="black" cx="1321" cy="-282" rx="156.787" ry="18"/>
<text text-anchor="middle" x="1321" y="-276.9" font-family="Times,serif" font-size="14.00">rule _RETURN on view v1 2618.23330</text>
</g>
<!-- table t1 1259.23312&#45;&gt;rule _RETURN on view v1 2618.23330 -->
<g id="edge48" class="edge"><title>table t1 1259.23312&#45;&gt;rule _RETURN on view v1 2618.23330</title>
<path fill="none" stroke="black" d="M1108.47,-354.772C1150.72,-340.305 1214.55,-318.449 1261.23,-302.465"/>
<polygon fill="black" stroke="black" points="1262.59,-305.699 1270.92,-299.148 1260.33,-299.076 1262.59,-305.699"/>
<text text-anchor="middle" x="1218.5" y="-320.9" font-family="Times,serif" font-size="14.00">n</text>
</g>
<!-- type t1 1247.23314 -->
<g id="node52" class="node"><title>type t1 1247.23314</title>
<ellipse fill="none" stroke="black" cx="1064" cy="-282" rx="81.8927" ry="18"/>
<text text-anchor="middle" x="1064" y="-276.9" font-family="Times,serif" font-size="14.00">type t1 1247.23314</text>
</g>
<!-- table t1 1259.23312&#45;&gt;type t1 1247.23314 -->
<g id="edge50" class="edge"><title>table t1 1259.23312&#45;&gt;type t1 1247.23314</title>
<path fill="none" stroke="red" d="M1064,-351.766C1064,-339.849 1064,-324.038 1064,-310.482"/>
<polygon fill="red" stroke="red" points="1067.5,-310.21 1064,-300.21 1060.5,-310.21 1067.5,-310.21"/>
<text text-anchor="middle" x="1066.5" y="-320.9" font-family="Times,serif" font-size="14.00">i</text>
</g>
<!-- table t2 1259.23317&#45;&gt;constraint t2_id_fkey on table t2 2606.23322 -->
<g id="edge52" class="edge"><title>table t2 1259.23317&#45;&gt;constraint t2_id_fkey on table t2 2606.23322</title>
<path fill="none" stroke="blue" d="M2064.67,-367.017C1952.8,-361.299 1760.78,-345.046 1709,-300 1665.51,-262.168 1715.62,-212.485 1671,-176 1629.87,-142.37 1327.45,-122.545 1128.73,-113.014"/>
<polygon fill="blue" stroke="blue" points="1128.61,-109.505 1118.46,-112.526 1128.28,-116.497 1128.61,-109.505"/>
<text text-anchor="middle" x="1693.5" y="-232.9" font-family="Times,serif" font-size="14.00">a</text>
</g>
<!-- table t2 1259.23317&#45;&gt;constraint t2_pkey on table t2 2606.23321 -->
<g id="edge54" class="edge"><title>table t2 1259.23317&#45;&gt;constraint t2_pkey on table t2 2606.23321</title>
<path fill="none" stroke="blue" d="M2101.62,-354.872C2058.17,-340.39 1992.31,-318.437 1944.23,-302.412"/>
<polygon fill="blue" stroke="blue" points="1945.16,-299.03 1934.56,-299.188 1942.94,-305.671 1945.16,-299.03"/>
<text text-anchor="middle" x="2041.5" y="-320.9" font-family="Times,serif" font-size="14.00">a</text>
</g>
<!-- rule _RETURN on view v2 2618.23334 -->
<g id="node56" class="node"><title>rule _RETURN on view v2 2618.23334</title>
<ellipse fill="none" stroke="black" cx="2404" cy="-282" rx="157.936" ry="18"/>
<text text-anchor="middle" x="2404" y="-276.9" font-family="Times,serif" font-size="14.00">rule _RETURN on view v2 2618.23334</text>
</g>
<!-- table t2 1259.23317&#45;&gt;rule _RETURN on view v2 2618.23334 -->
<g id="edge56" class="edge"><title>table t2 1259.23317&#45;&gt;rule _RETURN on view v2 2618.23334</title>
<path fill="none" stroke="black" d="M2196.88,-355.527C2217.99,-349.21 2242.79,-341.534 2265,-334 2293.34,-324.385 2324.58,-312.79 2350.26,-302.99"/>
<polygon fill="black" stroke="black" points="2351.72,-306.178 2359.8,-299.331 2349.21,-299.641 2351.72,-306.178"/>
<text text-anchor="middle" x="2310.5" y="-320.9" font-family="Times,serif" font-size="14.00">n</text>
</g>
<!-- type t2 1247.23319 -->
<g id="node58" class="node"><title>type t2 1247.23319</title>
<ellipse fill="none" stroke="black" cx="2147" cy="-282" rx="81.2428" ry="18"/>
<text text-anchor="middle" x="2147" y="-276.9" font-family="Times,serif" font-size="14.00">type t2 1247.23319</text>
</g>
<!-- table t2 1259.23317&#45;&gt;type t2 1247.23319 -->
<g id="edge58" class="edge"><title>table t2 1259.23317&#45;&gt;type t2 1247.23319</title>
<path fill="none" stroke="red" d="M2147,-351.766C2147,-339.849 2147,-324.038 2147,-310.482"/>
<polygon fill="red" stroke="red" points="2150.5,-310.21 2147,-300.21 2143.5,-310.21 2150.5,-310.21"/>
<text text-anchor="middle" x="2149.5" y="-320.9" font-family="Times,serif" font-size="14.00">i</text>
</g>
<!-- table t3 1259.23346&#45;&gt;constraint t3_pkey on table t3 2606.23352 -->
<g id="edge62" class="edge"><title>table t3 1259.23346&#45;&gt;constraint t3_pkey on table t3 2606.23352</title>
<path fill="none" stroke="blue" d="M3522.18,-355.665C3470.03,-340.956 3388.52,-317.967 3330.44,-301.585"/>
<polygon fill="blue" stroke="blue" points="3331.18,-298.157 3320.6,-298.811 3329.28,-304.894 3331.18,-298.157"/>
<text text-anchor="middle" x="3447.5" y="-320.9" font-family="Times,serif" font-size="14.00">a</text>
</g>
<!-- table t3 1259.23346&#45;&gt;constraint t3_id_check on table t3 2606.23350 -->
<g id="edge60" class="edge"><title>table t3 1259.23346&#45;&gt;constraint t3_id_check on table t3 2606.23350</title>
<path fill="none" stroke="yellow" d="M3637.11,-358.259C3651.82,-355.887 3667.42,-353.626 3682,-352 3818.28,-336.808 3855.03,-358.226 3990,-334 4028.68,-327.057 4070.94,-314.157 4103.65,-302.943"/>
<polygon fill="yellow" stroke="yellow" points="4105.18,-306.115 4113.48,-299.525 4102.88,-299.503 4105.18,-306.115"/>
<text text-anchor="middle" x="4057.5" y="-320.9" font-family="Times,serif" font-size="14.00">an</text>
</g>
<!-- table t3 1259.23346&#45;&gt;default for table t3 column id 2604.23349 -->
<g id="edge64" class="edge"><title>table t3 1259.23346&#45;&gt;default for table t3 column id 2604.23349</title>
<path fill="none" stroke="blue" d="M3612.84,-354.064C3648.34,-339.864 3700.57,-318.97 3739.67,-303.332"/>
<polygon fill="blue" stroke="blue" points="3741.32,-306.44 3749.31,-299.477 3738.72,-299.941 3741.32,-306.44"/>
<text text-anchor="middle" x="3705.5" y="-320.9" font-family="Times,serif" font-size="14.00">a</text>
</g>
<!-- type t3 1247.23348 -->
<g id="node63" class="node"><title>type t3 1247.23348</title>
<ellipse fill="none" stroke="black" cx="3526" cy="-282" rx="81.8927" ry="18"/>
<text text-anchor="middle" x="3526" y="-276.9" font-family="Times,serif" font-size="14.00">type t3 1247.23348</text>
</g>
<!-- table t3 1259.23346&#45;&gt;type t3 1247.23348 -->
<g id="edge66" class="edge"><title>table t3 1259.23346&#45;&gt;type t3 1247.23348</title>
<path fill="none" stroke="red" d="M3563.26,-351.766C3556.66,-339.413 3547.83,-322.877 3540.42,-309.004"/>
<polygon fill="red" stroke="red" points="3543.36,-307.081 3535.57,-299.909 3537.19,-310.379 3543.36,-307.081"/>
<text text-anchor="middle" x="3555.5" y="-320.9" font-family="Times,serif" font-size="14.00">i</text>
</g>
<!-- view v1 1259.23327&#45;&gt;rule _RETURN on view v1 2618.23330 -->
<g id="edge82" class="edge"><title>view v1 1259.23327&#45;&gt;rule _RETURN on view v1 2618.23330</title>
<path fill="none" stroke="green" d="M1728.85,-358.04C1647.38,-342.851 1506.23,-316.535 1413.22,-299.194"/>
<polygon fill="green" stroke="green" points="1413.73,-295.727 1403.25,-297.335 1412.44,-302.609 1413.73,-295.727"/>
<text text-anchor="middle" x="1605" y="-320.9" font-family="Times,serif" font-size="14.00">ni</text>
</g>
<!-- type v1 1247.23329 -->
<g id="node70" class="node"><title>type v1 1247.23329</title>
<ellipse fill="none" stroke="black" cx="1579" cy="-282" rx="83.1926" ry="18"/>
<text text-anchor="middle" x="1579" y="-276.9" font-family="Times,serif" font-size="14.00">type v1 1247.23329</text>
</g>
<!-- view v1 1259.23327&#45;&gt;type v1 1247.23329 -->
<g id="edge86" class="edge"><title>view v1 1259.23327&#45;&gt;type v1 1247.23329</title>
<path fill="none" stroke="red" d="M1737.11,-356.386C1716.02,-350.506 1692.05,-342.915 1671,-334 1651.61,-325.788 1631.12,-314.49 1614.41,-304.523"/>
<polygon fill="red" stroke="red" points="1615.91,-301.34 1605.55,-299.15 1612.29,-307.327 1615.91,-301.34"/>
<text text-anchor="middle" x="1673.5" y="-320.9" font-family="Times,serif" font-size="14.00">i</text>
</g>
<!-- rule _RETURN on view v3 2618.23338 -->
<g id="node84" class="node"><title>rule _RETURN on view v3 2618.23338</title>
<ellipse fill="none" stroke="black" cx="2921" cy="-282" rx="156.787" ry="18"/>
<text text-anchor="middle" x="2921" y="-276.9" font-family="Times,serif" font-size="14.00">rule _RETURN on view v3 2618.23338</text>
</g>
<!-- view v1 1259.23327&#45;&gt;rule _RETURN on view v3 2618.23338 -->
<g id="edge84" class="edge"><title>view v1 1259.23327&#45;&gt;rule _RETURN on view v3 2618.23338</title>
<path fill="none" stroke="black" d="M1872.46,-363.461C1946.1,-357.083 2058.64,-346.528 2156,-334 2201.08,-328.199 2211.76,-322.384 2257,-318 2477.44,-296.634 2534.1,-315.948 2755,-300 2770.06,-298.913 2785.87,-297.523 2801.49,-295.998"/>
<polygon fill="black" stroke="black" points="2802.11,-299.453 2811.72,-294.979 2801.42,-292.488 2802.11,-299.453"/>
<text text-anchor="middle" x="2260.5" y="-320.9" font-family="Times,serif" font-size="14.00">n</text>
</g>
<!-- view v2 1259.23331&#45;&gt;rule _RETURN on view v2 2618.23334 -->
<g id="edge88" class="edge"><title>view v2 1259.23331&#45;&gt;rule _RETURN on view v2 2618.23334</title>
<path fill="none" stroke="green" d="M2734.76,-356.826C2668.43,-341.82 2559.62,-317.204 2485.03,-300.331"/>
<polygon fill="green" stroke="green" points="2485.72,-296.899 2475.2,-298.107 2484.18,-303.727 2485.72,-296.899"/>
<text text-anchor="middle" x="2639" y="-320.9" font-family="Times,serif" font-size="14.00">ni</text>
</g>
<!-- type v2 1247.23333 -->
<g id="node73" class="node"><title>type v2 1247.23333</title>
<ellipse fill="none" stroke="black" cx="2663" cy="-282" rx="83.1926" ry="18"/>
<text text-anchor="middle" x="2663" y="-276.9" font-family="Times,serif" font-size="14.00">type v2 1247.23333</text>
</g>
<!-- view v2 1259.23331&#45;&gt;type v2 1247.23333 -->
<g id="edge92" class="edge"><title>view v2 1259.23331&#45;&gt;type v2 1247.23333</title>
<path fill="none" stroke="red" d="M2767.32,-352.614C2747.2,-338.994 2719.03,-319.925 2697.03,-305.036"/>
<polygon fill="red" stroke="red" points="2698.87,-302.057 2688.63,-299.35 2694.95,-307.854 2698.87,-302.057"/>
<text text-anchor="middle" x="2741.5" y="-320.9" font-family="Times,serif" font-size="14.00">i</text>
</g>
<!-- view v2 1259.23331&#45;&gt;rule _RETURN on view v3 2618.23338 -->
<g id="edge90" class="edge"><title>view v2 1259.23331&#45;&gt;rule _RETURN on view v3 2618.23338</title>
<path fill="none" stroke="black" d="M2818.29,-352.614C2837.76,-339.231 2864.88,-320.585 2886.36,-305.815"/>
<polygon fill="black" stroke="black" points="2888.63,-308.503 2894.89,-299.954 2884.66,-302.735 2888.63,-308.503"/>
<text text-anchor="middle" x="2871.5" y="-320.9" font-family="Times,serif" font-size="14.00">n</text>
</g>
<!-- view v3 1259.23335&#45;&gt;rule _RETURN on view v4 2618.23343 -->
<g id="edge96" class="edge"><title>view v3 1259.23335&#45;&gt;rule _RETURN on view v4 2618.23343</title>
<path fill="none" stroke="black" d="M4558.36,-356.73C4624.34,-341.727 4732.19,-317.203 4806.23,-300.367"/>
<polygon fill="black" stroke="black" points="4807.02,-303.777 4815.99,-298.147 4805.46,-296.951 4807.02,-303.777"/>
<text text-anchor="middle" x="4731.5" y="-320.9" font-family="Times,serif" font-size="14.00">n</text>
</g>
<!-- type v3 1247.23337 -->
<g id="node76" class="node"><title>type v3 1247.23337</title>
<ellipse fill="none" stroke="black" cx="4627" cy="-282" rx="83.1926" ry="18"/>
<text text-anchor="middle" x="4627" y="-276.9" font-family="Times,serif" font-size="14.00">type v3 1247.23337</text>
</g>
<!-- view v3 1259.23335&#45;&gt;type v3 1247.23337 -->
<g id="edge98" class="edge"><title>view v3 1259.23335&#45;&gt;type v3 1247.23337</title>
<path fill="none" stroke="red" d="M4525.09,-352.614C4544.66,-339.055 4572.02,-320.094 4593.47,-305.234"/>
<polygon fill="red" stroke="red" points="4595.73,-307.922 4601.96,-299.35 4591.75,-302.168 4595.73,-307.922"/>
<text text-anchor="middle" x="4576.5" y="-320.9" font-family="Times,serif" font-size="14.00">i</text>
</g>
<!-- view v3 1259.23335&#45;&gt;rule _RETURN on view v3 2618.23338 -->
<g id="edge94" class="edge"><title>view v3 1259.23335&#45;&gt;rule _RETURN on view v3 2618.23338</title>
<path fill="none" stroke="green" d="M4427.84,-360.147C4403.76,-357.147 4376.76,-354.092 4352,-352 4184.41,-337.837 4141.77,-345.883 3974,-334 3898.3,-328.638 3879.76,-322.511 3804,-318 3485.8,-299.054 3405.06,-321.2 3087,-300 3071.7,-298.98 3055.63,-297.613 3039.76,-296.085"/>
<polygon fill="green" stroke="green" points="3039.67,-292.559 3029.38,-295.06 3038.99,-299.526 3039.67,-292.559"/>
<text text-anchor="middle" x="3980" y="-320.9" font-family="Times,serif" font-size="14.00">ni</text>
</g>
<!-- view v4 1259.23340&#45;&gt;rule _RETURN on view v4 2618.23343 -->
<g id="edge100" class="edge"><title>view v4 1259.23340&#45;&gt;rule _RETURN on view v4 2618.23343</title>
<path fill="none" stroke="green" d="M4887,-351.766C4887,-339.849 4887,-324.038 4887,-310.482"/>
<polygon fill="green" stroke="green" points="4890.5,-310.21 4887,-300.21 4883.5,-310.21 4890.5,-310.21"/>
<text text-anchor="middle" x="4893" y="-320.9" font-family="Times,serif" font-size="14.00">in</text>
</g>
<!-- type v4 1247.23342 -->
<g id="node79" class="node"><title>type v4 1247.23342</title>
<ellipse fill="none" stroke="black" cx="5149" cy="-282" rx="85.1424" ry="18"/>
<text text-anchor="middle" x="5149" y="-276.9" font-family="Times,serif" font-size="14.00">type v4 1247.23342</text>
</g>
<!-- view v4 1259.23340&#45;&gt;type v4 1247.23342 -->
<g id="edge102" class="edge"><title>view v4 1259.23340&#45;&gt;type v4 1247.23342</title>
<path fill="none" stroke="red" d="M4932.64,-354.672C4977.49,-339.607 5045.99,-316.6 5093.86,-300.52"/>
<polygon fill="red" stroke="red" points="5095.08,-303.802 5103.45,-297.3 5092.85,-297.166 5095.08,-303.802"/>
<text text-anchor="middle" x="5043.5" y="-320.9" font-family="Times,serif" font-size="14.00">i</text>
</g>
<!-- type t1[] 1247.23313 -->
<g id="node65" class="node"><title>type t1[] 1247.23313</title>
<ellipse fill="none" stroke="black" cx="1069" cy="-194" rx="87.0923" ry="18"/>
<text text-anchor="middle" x="1069" y="-188.9" font-family="Times,serif" font-size="14.00">type t1[] 1247.23313</text>
</g>
<!-- type t1 1247.23314&#45;&gt;type t1[] 1247.23313 -->
<g id="edge68" class="edge"><title>type t1 1247.23314&#45;&gt;type t1[] 1247.23313</title>
<path fill="none" stroke="red" d="M1065.04,-263.766C1065.71,-251.849 1066.61,-236.038 1067.38,-222.482"/>
<polygon fill="red" stroke="red" points="1070.89,-222.393 1067.97,-212.21 1063.9,-221.996 1070.89,-222.393"/>
<text text-anchor="middle" x="1068.5" y="-232.9" font-family="Times,serif" font-size="14.00">i</text>
</g>
<!-- type t2[] 1247.23318 -->
<g id="node67" class="node"><title>type t2[] 1247.23318</title>
<ellipse fill="none" stroke="black" cx="2147" cy="-194" rx="87.0923" ry="18"/>
<text text-anchor="middle" x="2147" y="-188.9" font-family="Times,serif" font-size="14.00">type t2[] 1247.23318</text>
</g>
<!-- type t2 1247.23319&#45;&gt;type t2[] 1247.23318 -->
<g id="edge70" class="edge"><title>type t2 1247.23319&#45;&gt;type t2[] 1247.23318</title>
<path fill="none" stroke="red" d="M2147,-263.766C2147,-251.849 2147,-236.038 2147,-222.482"/>
<polygon fill="red" stroke="red" points="2150.5,-222.21 2147,-212.21 2143.5,-222.21 2150.5,-222.21"/>
<text text-anchor="middle" x="2149.5" y="-232.9" font-family="Times,serif" font-size="14.00">i</text>
</g>
<!-- type t3[] 1247.23347 -->
<g id="node69" class="node"><title>type t3[] 1247.23347</title>
<ellipse fill="none" stroke="black" cx="3526" cy="-194" rx="87.8928" ry="18"/>
<text text-anchor="middle" x="3526" y="-188.9" font-family="Times,serif" font-size="14.00">type t3[] 1247.23347</text>
</g>
<!-- type t3 1247.23348&#45;&gt;type t3[] 1247.23347 -->
<g id="edge72" class="edge"><title>type t3 1247.23348&#45;&gt;type t3[] 1247.23347</title>
<path fill="none" stroke="red" d="M3526,-263.766C3526,-251.849 3526,-236.038 3526,-222.482"/>
<polygon fill="red" stroke="red" points="3529.5,-222.21 3526,-212.21 3522.5,-222.21 3529.5,-222.21"/>
<text text-anchor="middle" x="3528.5" y="-232.9" font-family="Times,serif" font-size="14.00">i</text>
</g>
<!-- type v1[] 1247.23328 -->
<g id="node72" class="node"><title>type v1[] 1247.23328</title>
<ellipse fill="none" stroke="black" cx="1573" cy="-194" rx="89.0421" ry="18"/>
<text text-anchor="middle" x="1573" y="-188.9" font-family="Times,serif" font-size="14.00">type v1[] 1247.23328</text>
</g>
<!-- type v1 1247.23329&#45;&gt;type v1[] 1247.23328 -->
<g id="edge74" class="edge"><title>type v1 1247.23329&#45;&gt;type v1[] 1247.23328</title>
<path fill="none" stroke="red" d="M1577.76,-263.766C1576.94,-251.849 1575.87,-236.038 1574.94,-222.482"/>
<polygon fill="red" stroke="red" points="1578.41,-221.949 1574.24,-212.21 1571.43,-222.425 1578.41,-221.949"/>
<text text-anchor="middle" x="1578.5" y="-232.9" font-family="Times,serif" font-size="14.00">i</text>
</g>
<!-- type v2[] 1247.23332 -->
<g id="node75" class="node"><title>type v2[] 1247.23332</title>
<ellipse fill="none" stroke="black" cx="2663" cy="-194" rx="89.0421" ry="18"/>
<text text-anchor="middle" x="2663" y="-188.9" font-family="Times,serif" font-size="14.00">type v2[] 1247.23332</text>
</g>
<!-- type v2 1247.23333&#45;&gt;type v2[] 1247.23332 -->
<g id="edge76" class="edge"><title>type v2 1247.23333&#45;&gt;type v2[] 1247.23332</title>
<path fill="none" stroke="red" d="M2663,-263.766C2663,-251.849 2663,-236.038 2663,-222.482"/>
<polygon fill="red" stroke="red" points="2666.5,-222.21 2663,-212.21 2659.5,-222.21 2666.5,-222.21"/>
<text text-anchor="middle" x="2665.5" y="-232.9" font-family="Times,serif" font-size="14.00">i</text>
</g>
<!-- type v3[] 1247.23336 -->
<g id="node78" class="node"><title>type v3[] 1247.23336</title>
<ellipse fill="none" stroke="black" cx="4627" cy="-194" rx="89.191" ry="18"/>
<text text-anchor="middle" x="4627" y="-188.9" font-family="Times,serif" font-size="14.00">type v3[] 1247.23336</text>
</g>
<!-- type v3 1247.23337&#45;&gt;type v3[] 1247.23336 -->
<g id="edge78" class="edge"><title>type v3 1247.23337&#45;&gt;type v3[] 1247.23336</title>
<path fill="none" stroke="red" d="M4627,-263.766C4627,-251.849 4627,-236.038 4627,-222.482"/>
<polygon fill="red" stroke="red" points="4630.5,-222.21 4627,-212.21 4623.5,-222.21 4630.5,-222.21"/>
<text text-anchor="middle" x="4629.5" y="-232.9" font-family="Times,serif" font-size="14.00">i</text>
</g>
<!-- type v4[] 1247.23341 -->
<g id="node81" class="node"><title>type v4[] 1247.23341</title>
<ellipse fill="none" stroke="black" cx="5149" cy="-194" rx="90.9919" ry="18"/>
<text text-anchor="middle" x="5149" y="-188.9" font-family="Times,serif" font-size="14.00">type v4[] 1247.23341</text>
</g>
<!-- type v4 1247.23342&#45;&gt;type v4[] 1247.23341 -->
<g id="edge80" class="edge"><title>type v4 1247.23342&#45;&gt;type v4[] 1247.23341</title>
<path fill="none" stroke="red" d="M5149,-263.766C5149,-251.849 5149,-236.038 5149,-222.482"/>
<polygon fill="red" stroke="red" points="5152.5,-222.21 5149,-212.21 5145.5,-222.21 5152.5,-222.21"/>
<text text-anchor="middle" x="5151.5" y="-232.9" font-family="Times,serif" font-size="14.00">i</text>
</g>
</g>
</svg>
