<?xml version="1.0" encoding="UTF-8" standalone="no"?>
<!DOCTYPE svg PUBLIC "-//W3C//DTD SVG 1.1//EN"
 "http://www.w3.org/Graphics/SVG/1.1/DTD/svg11.dtd">
<!-- Generated by graphviz version 2.26.3 (20100126.1600)
 -->
<!-- Title: pg_depend Pages: 1 -->
<svg width="726pt" height="404pt"
 viewBox="0.00 0.00 726.00 404.00" xmlns="http://www.w3.org/2000/svg" xmlns:xlink="http://www.w3.org/1999/xlink">
<g id="graph1" class="graph" transform="scale(1 1) rotate(0) translate(4 400)">
<title>pg_depend</title>
<polygon fill="white" stroke="white" points="-4,5 -4,-400 723,-400 723,5 -4,5"/>
<!-- schema public 2615.2200 -->
<g id="node1" class="node"><title>schema public 2615.2200</title>
<ellipse fill="none" stroke="black" cx="367" cy="-378" rx="105.941" ry="18"/>
<text text-anchor="middle" x="367" y="-372.9" font-family="Times,serif" font-size="14.00">schema public 2615.2200</text>
</g>
<!-- table t1 1259.23312 -->
<g id="node3" class="node"><title>table t1 1259.23312</title>
<ellipse fill="none" stroke="black" cx="137" cy="-306" rx="83.1926" ry="18"/>
<text text-anchor="middle" x="137" y="-300.9" font-family="Times,serif" font-size="14.00">table t1 1259.23312</text>
</g>
<!-- schema public 2615.2200&#45;&gt;table t1 1259.23312 -->
<g id="edge2" class="edge"><title>schema public 2615.2200&#45;&gt;table t1 1259.23312</title>
<path fill="none" stroke="black" d="M316.241,-362.11C280.174,-350.82 231.694,-335.643 194.248,-323.921"/>
<polygon fill="black" stroke="black" points="195.079,-320.514 184.49,-320.866 192.988,-327.194 195.079,-320.514"/>
</g>
<!-- function f1(integer) 1255.23339 -->
<g id="node5" class="node"><title>function f1(integer) 1255.23339</title>
<ellipse fill="none" stroke="black" cx="367" cy="-306" rx="128.839" ry="18"/>
<text text-anchor="middle" x="367" y="-300.9" font-family="Times,serif" font-size="14.00">function f1(integer) 1255.23339</text>
</g>
<!-- schema public 2615.2200&#45;&gt;function f1(integer) 1255.23339 -->
<g id="edge4" class="edge"><title>schema public 2615.2200&#45;&gt;function f1(integer) 1255.23339</title>
<path fill="none" stroke="black" d="M367,-359.831C367,-352.131 367,-342.974 367,-334.417"/>
<polygon fill="black" stroke="black" points="370.5,-334.413 367,-324.413 363.5,-334.413 370.5,-334.413"/>
</g>
<!-- sequence s1 1259.23344 -->
<g id="node7" class="node"><title>sequence s1 1259.23344</title>
<ellipse fill="none" stroke="black" cx="616" cy="-306" rx="102.19" ry="18"/>
<text text-anchor="middle" x="616" y="-300.9" font-family="Times,serif" font-size="14.00">sequence s1 1259.23344</text>
</g>
<!-- schema public 2615.2200&#45;&gt;sequence s1 1259.23344 -->
<g id="edge6" class="edge"><title>schema public 2615.2200&#45;&gt;sequence s1 1259.23344</title>
<path fill="none" stroke="black" d="M420.723,-362.466C459.553,-351.238 512.139,-336.032 552.959,-324.229"/>
<polygon fill="black" stroke="black" points="554.167,-327.523 562.802,-321.383 552.223,-320.798 554.167,-327.523"/>
</g>
<!-- table t2 1259.23317 -->
<g id="node9" class="node"><title>table t2 1259.23317</title>
<ellipse fill="none" stroke="black" cx="85" cy="-234" rx="83.1926" ry="18"/>
<text text-anchor="middle" x="85" y="-228.9" font-family="Times,serif" font-size="14.00">table t2 1259.23317</text>
</g>
<!-- table t1 1259.23312&#45;&gt;table t2 1259.23317 -->
<g id="edge8" class="edge"><title>table t1 1259.23312&#45;&gt;table t2 1259.23317</title>
<path fill="none" stroke="black" d="M124.146,-288.202C118.021,-279.721 110.575,-269.412 103.828,-260.07"/>
<polygon fill="black" stroke="black" points="106.579,-257.9 97.8863,-251.843 100.904,-261.999 106.579,-257.9"/>
</g>
<!-- view v1 1259.23327 -->
<g id="node13" class="node"><title>view v1 1259.23327</title>
<ellipse fill="none" stroke="black" cx="273" cy="-162" rx="85.1424" ry="18"/>
<text text-anchor="middle" x="273" y="-156.9" font-family="Times,serif" font-size="14.00">view v1 1259.23327</text>
</g>
<!-- table t1 1259.23312&#45;&gt;view v1 1259.23327 -->
<g id="edge12" class="edge"><title>table t1 1259.23312&#45;&gt;view v1 1259.23327</title>
<path fill="none" stroke="black" d="M151.418,-288.257C166.683,-269.741 191.74,-240.103 215,-216 224.574,-206.079 235.54,-195.651 245.341,-186.632"/>
<polygon fill="black" stroke="black" points="247.871,-189.062 252.903,-179.739 243.155,-183.889 247.871,-189.062"/>
</g>
<!-- table t3 1259.23346 -->
<g id="node11" class="node"><title>table t3 1259.23346</title>
<ellipse fill="none" stroke="black" cx="308" cy="-234" rx="83.9925" ry="18"/>
<text text-anchor="middle" x="308" y="-228.9" font-family="Times,serif" font-size="14.00">table t3 1259.23346</text>
</g>
<!-- function f1(integer) 1255.23339&#45;&gt;table t3 1259.23346 -->
<g id="edge10" class="edge"><title>function f1(integer) 1255.23339&#45;&gt;table t3 1259.23346</title>
<path fill="none" stroke="black" d="M352.112,-287.831C345.141,-279.325 336.715,-269.042 329.102,-259.752"/>
<polygon fill="black" stroke="black" points="331.724,-257.43 322.679,-251.913 326.31,-261.867 331.724,-257.43"/>
</g>
<!-- view v4 1259.23340 -->
<g id="node20" class="node"><title>view v4 1259.23340</title>
<ellipse fill="none" stroke="black" cx="346" cy="-18" rx="87.2408" ry="18"/>
<text text-anchor="middle" x="346" y="-12.9" font-family="Times,serif" font-size="14.00">view v4 1259.23340</text>
</g>
<!-- function f1(integer) 1255.23339&#45;&gt;view v4 1259.23340 -->
<g id="edge22" class="edge"><title>function f1(integer) 1255.23339&#45;&gt;view v4 1259.23340</title>
<path fill="none" stroke="black" d="M382.114,-287.777C389.355,-277.859 397.252,-264.986 401,-252 405.436,-236.627 402.798,-231.899 401,-216 393.62,-150.757 387.784,-134.607 368,-72 365.238,-63.2583 361.676,-53.9436 358.227,-45.5554"/>
<polygon fill="black" stroke="black" points="361.401,-44.073 354.284,-36.2237 354.953,-46.7974 361.401,-44.073"/>
</g>
<!-- view v2 1259.23331 -->
<g id="node15" class="node"><title>view v2 1259.23331</title>
<ellipse fill="none" stroke="black" cx="85" cy="-162" rx="85.1424" ry="18"/>
<text text-anchor="middle" x="85" y="-156.9" font-family="Times,serif" font-size="14.00">view v2 1259.23331</text>
</g>
<!-- table t2 1259.23317&#45;&gt;view v2 1259.23331 -->
<g id="edge14" class="edge"><title>table t2 1259.23317&#45;&gt;view v2 1259.23331</title>
<path fill="none" stroke="black" d="M85,-215.831C85,-208.131 85,-198.974 85,-190.417"/>
<polygon fill="black" stroke="black" points="88.5001,-190.413 85,-180.413 81.5001,-190.413 88.5001,-190.413"/>
</g>
<!-- view v3 1259.23335 -->
<g id="node17" class="node"><title>view v3 1259.23335</title>
<ellipse fill="none" stroke="black" cx="273" cy="-90" rx="85.7924" ry="18"/>
<text text-anchor="middle" x="273" y="-84.9" font-family="Times,serif" font-size="14.00">view v3 1259.23335</text>
</g>
<!-- view v1 1259.23327&#45;&gt;view v3 1259.23335 -->
<g id="edge16" class="edge"><title>view v1 1259.23327&#45;&gt;view v3 1259.23335</title>
<path fill="none" stroke="black" d="M273,-143.831C273,-136.131 273,-126.974 273,-118.417"/>
<polygon fill="black" stroke="black" points="276.5,-118.413 273,-108.413 269.5,-118.413 276.5,-118.413"/>
</g>
<!-- view v2 1259.23331&#45;&gt;view v3 1259.23335 -->
<g id="edge18" class="edge"><title>view v2 1259.23331&#45;&gt;view v3 1259.23335</title>
<path fill="none" stroke="black" d="M126.257,-146.199C154.444,-135.404 191.986,-121.027 222.041,-109.516"/>
<polygon fill="black" stroke="black" points="223.428,-112.733 231.514,-105.888 220.924,-106.196 223.428,-112.733"/>
</g>
<!-- view v3 1259.23335&#45;&gt;view v4 1259.23340 -->
<g id="edge20" class="edge"><title>view v3 1259.23335&#45;&gt;view v4 1259.23340</title>
<path fill="none" stroke="black" d="M291.045,-72.2022C299.995,-63.3752 310.953,-52.5669 320.723,-42.9307"/>
<polygon fill="black" stroke="black" points="323.248,-45.3566 327.91,-35.8425 318.332,-40.3728 323.248,-45.3566"/>
</g>
</g>
</svg>
