<?xml version="1.0" encoding="UTF-8" standalone="no"?>
<!DOCTYPE svg PUBLIC "-//W3C//DTD SVG 1.1//EN"
 "http://www.w3.org/Graphics/SVG/1.1/DTD/svg11.dtd">
<!-- Generated by graphviz version 2.26.3 (20100126.1600)
 -->
<!-- Title: pg_depend Pages: 1 -->
<svg width="4237pt" height="680pt"
 viewBox="0.00 0.00 4237.00 680.00" xmlns="http://www.w3.org/2000/svg" xmlns:xlink="http://www.w3.org/1999/xlink">
<g id="graph1" class="graph" transform="scale(1 1) rotate(0) translate(4 676)">
<title>pg_depend</title>
<polygon fill="white" stroke="white" points="-4,5 -4,-676 4234,-676 4234,5 -4,5"/>
<!-- function plpgsql_call_handler() 1255.11599.0 -->
<g id="node1" class="node"><title>function plpgsql_call_handler() 1255.11599.0</title>
<ellipse fill="none" stroke="black" cx="182" cy="-654" rx="181.984" ry="18"/>
<text text-anchor="middle" x="182" y="-648.9" font-family="Times,serif" font-size="14.00">function plpgsql_call_handler() 1255.11599.0</text>
</g>
<!-- language plpgsql 2612.11602.0 -->
<g id="node3" class="node"><title>language plpgsql 2612.11602.0</title>
<ellipse fill="none" stroke="black" cx="599" cy="-566" rx="126.238" ry="18"/>
<text text-anchor="middle" x="599" y="-560.9" font-family="Times,serif" font-size="14.00">language plpgsql 2612.11602.0</text>
</g>
<!-- function plpgsql_call_handler() 1255.11599.0&#45;&gt;language plpgsql 2612.11602.0 -->
<g id="edge2" class="edge"><title>function plpgsql_call_handler() 1255.11599.0&#45;&gt;language plpgsql 2612.11602.0</title>
<path fill="none" stroke="black" d="M259.457,-637.654C333.167,-622.099 443.623,-598.789 518.367,-583.016"/>
<polygon fill="black" stroke="black" points="519.15,-586.428 528.212,-580.939 517.705,-579.579 519.15,-586.428"/>
<text text-anchor="middle" x="431.5" y="-604.9" font-family="Times,serif" font-size="14.00">n</text>
</g>
<!-- function plpgsql_inline_handler(internal) 1255.11600.0 -->
<g id="node4" class="node"><title>function plpgsql_inline_handler(internal) 1255.11600.0</title>
<ellipse fill="none" stroke="black" cx="599" cy="-654" rx="217.23" ry="18"/>
<text text-anchor="middle" x="599" y="-648.9" font-family="Times,serif" font-size="14.00">function plpgsql_inline_handler(internal) 1255.11600.0</text>
</g>
<!-- function plpgsql_inline_handler(internal) 1255.11600.0&#45;&gt;language plpgsql 2612.11602.0 -->
<g id="edge4" class="edge"><title>function plpgsql_inline_handler(internal) 1255.11600.0&#45;&gt;language plpgsql 2612.11602.0</title>
<path fill="none" stroke="black" d="M599,-635.766C599,-623.849 599,-608.038 599,-594.482"/>
<polygon fill="black" stroke="black" points="602.5,-594.21 599,-584.21 595.5,-594.21 602.5,-594.21"/>
<text text-anchor="middle" x="602.5" y="-604.9" font-family="Times,serif" font-size="14.00">n</text>
</g>
<!-- function plpgsql_validator(oid) 1255.11601.0 -->
<g id="node6" class="node"><title>function plpgsql_validator(oid) 1255.11601.0</title>
<ellipse fill="none" stroke="black" cx="1014" cy="-654" rx="180.183" ry="18"/>
<text text-anchor="middle" x="1014" y="-648.9" font-family="Times,serif" font-size="14.00">function plpgsql_validator(oid) 1255.11601.0</text>
</g>
<!-- function plpgsql_validator(oid) 1255.11601.0&#45;&gt;language plpgsql 2612.11602.0 -->
<g id="edge6" class="edge"><title>function plpgsql_validator(oid) 1255.11601.0&#45;&gt;language plpgsql 2612.11602.0</title>
<path fill="none" stroke="black" d="M936.914,-637.654C863.558,-622.099 753.631,-598.789 679.246,-583.016"/>
<polygon fill="black" stroke="black" points="679.957,-579.589 669.449,-580.939 678.505,-586.437 679.957,-579.589"/>
<text text-anchor="middle" x="847.5" y="-604.9" font-family="Times,serif" font-size="14.00">n</text>
</g>
<!-- function plperl_call_handler() 1255.23562.0 -->
<g id="node8" class="node"><title>function plperl_call_handler() 1255.23562.0</title>
<ellipse fill="none" stroke="black" cx="1387" cy="-654" rx="174.984" ry="18"/>
<text text-anchor="middle" x="1387" y="-648.9" font-family="Times,serif" font-size="14.00">function plperl_call_handler() 1255.23562.0</text>
</g>
<!-- language plperl 2612.23565.0 -->
<g id="node10" class="node"><title>language plperl 2612.23565.0</title>
<ellipse fill="none" stroke="black" cx="1792" cy="-566" rx="121.039" ry="18"/>
<text text-anchor="middle" x="1792" y="-560.9" font-family="Times,serif" font-size="14.00">language plperl 2612.23565.0</text>
</g>
<!-- function plperl_call_handler() 1255.23562.0&#45;&gt;language plperl 2612.23565.0 -->
<g id="edge8" class="edge"><title>function plperl_call_handler() 1255.23562.0&#45;&gt;language plperl 2612.23565.0</title>
<path fill="none" stroke="black" d="M1462.23,-637.654C1533.78,-622.107 1640.98,-598.813 1713.58,-583.04"/>
<polygon fill="black" stroke="black" points="1714.55,-586.41 1723.58,-580.866 1713.07,-579.57 1714.55,-586.41"/>
<text text-anchor="middle" x="1629.5" y="-604.9" font-family="Times,serif" font-size="14.00">n</text>
</g>
<!-- function plperl_inline_handler(internal) 1255.23563.0 -->
<g id="node11" class="node"><title>function plperl_inline_handler(internal) 1255.23563.0</title>
<ellipse fill="none" stroke="black" cx="1792" cy="-654" rx="211.881" ry="18"/>
<text text-anchor="middle" x="1792" y="-648.9" font-family="Times,serif" font-size="14.00">function plperl_inline_handler(internal) 1255.23563.0</text>
</g>
<!-- function plperl_inline_handler(internal) 1255.23563.0&#45;&gt;language plperl 2612.23565.0 -->
<g id="edge10" class="edge"><title>function plperl_inline_handler(internal) 1255.23563.0&#45;&gt;language plperl 2612.23565.0</title>
<path fill="none" stroke="black" d="M1792,-635.766C1792,-623.849 1792,-608.038 1792,-594.482"/>
<polygon fill="black" stroke="black" points="1795.5,-594.21 1792,-584.21 1788.5,-594.21 1795.5,-594.21"/>
<text text-anchor="middle" x="1795.5" y="-604.9" font-family="Times,serif" font-size="14.00">n</text>
</g>
<!-- function plperl_validator(oid) 1255.23564.0 -->
<g id="node13" class="node"><title>function plperl_validator(oid) 1255.23564.0</title>
<ellipse fill="none" stroke="black" cx="2198" cy="-654" rx="176.134" ry="18"/>
<text text-anchor="middle" x="2198" y="-648.9" font-family="Times,serif" font-size="14.00">function plperl_validator(oid) 1255.23564.0</text>
</g>
<!-- function plperl_validator(oid) 1255.23564.0&#45;&gt;language plperl 2612.23565.0 -->
<g id="edge12" class="edge"><title>function plperl_validator(oid) 1255.23564.0&#45;&gt;language plperl 2612.23565.0</title>
<path fill="none" stroke="black" d="M2122.59,-637.654C2050.86,-622.107 1943.39,-598.813 1870.62,-583.04"/>
<polygon fill="black" stroke="black" points="1871.1,-579.564 1860.59,-580.866 1869.62,-586.405 1871.1,-579.564"/>
<text text-anchor="middle" x="2034.5" y="-604.9" font-family="Times,serif" font-size="14.00">n</text>
</g>
<!-- function f1(integer) 1255.23656.0 -->
<g id="node15" class="node"><title>function f1(integer) 1255.23656.0</title>
<ellipse fill="none" stroke="black" cx="2999" cy="-566" rx="137.138" ry="18"/>
<text text-anchor="middle" x="2999" y="-560.9" font-family="Times,serif" font-size="14.00">function f1(integer) 1255.23656.0</text>
</g>
<!-- view v4 1259.23688.0 -->
<g id="node17" class="node"><title>view v4 1259.23688.0</title>
<ellipse fill="none" stroke="black" cx="2963" cy="-18" rx="93.0912" ry="18"/>
<text text-anchor="middle" x="2963" y="-12.9" font-family="Times,serif" font-size="14.00">view v4 1259.23688.0</text>
</g>
<!-- function f1(integer) 1255.23656.0&#45;&gt;view v4 1259.23688.0 -->
<g id="edge14" class="edge"><title>function f1(integer) 1255.23656.0&#45;&gt;view v4 1259.23688.0</title>
<path fill="none" stroke="black" d="M3002.01,-547.713C3005.26,-526.28 3010,-489.663 3010,-458 3010,-458 3010,-458 3010,-106 3010,-83.1386 2997.51,-60.4579 2985.4,-43.849"/>
<polygon fill="black" stroke="black" points="2988.04,-41.5441 2979.17,-35.7483 2982.49,-45.8099 2988.04,-41.5441"/>
<text text-anchor="middle" x="3013.5" y="-276.9" font-family="Times,serif" font-size="14.00">n</text>
</g>
<!-- constraint t3_id_check on table t3 2606.23673.0 -->
<g id="node19" class="node"><title>constraint t3_id_check on table t3 2606.23673.0</title>
<ellipse fill="none" stroke="black" cx="3313" cy="-370" rx="187.983" ry="18"/>
<text text-anchor="middle" x="3313" y="-364.9" font-family="Times,serif" font-size="14.00">constraint t3_id_check on table t3 2606.23673.0</text>
</g>
<!-- function f1(integer) 1255.23656.0&#45;&gt;constraint t3_id_check on table t3 2606.23673.0 -->
<g id="edge16" class="edge"><title>function f1(integer) 1255.23656.0&#45;&gt;constraint t3_id_check on table t3 2606.23673.0</title>
<path fill="none" stroke="black" d="M3027.42,-548.261C3084.37,-512.711 3212.44,-432.769 3275.91,-393.154"/>
<polygon fill="black" stroke="black" points="3277.79,-396.105 3284.42,-387.841 3274.08,-390.167 3277.79,-396.105"/>
<text text-anchor="middle" x="3200.5" y="-452.9" font-family="Times,serif" font-size="14.00">n</text>
</g>
<!-- table t1 1259.23651.0 -->
<g id="node20" class="node"><title>table t1 1259.23651.0</title>
<ellipse fill="none" stroke="black" cx="2137" cy="-566" rx="90.9919" ry="18"/>
<text text-anchor="middle" x="2137" y="-560.9" font-family="Times,serif" font-size="14.00">table t1 1259.23651.0</text>
</g>
<!-- table t1 column id 1259.23651.1 -->
<g id="node22" class="node"><title>table t1 column id 1259.23651.1</title>
<ellipse fill="none" stroke="black" cx="1946" cy="-458" rx="130.789" ry="18"/>
<text text-anchor="middle" x="1946" y="-452.9" font-family="Times,serif" font-size="14.00">table t1 column id 1259.23651.1</text>
</g>
<!-- table t1 1259.23651.0&#45;&gt;table t1 column id 1259.23651.1 -->
<g id="edge18" class="edge"><title>table t1 1259.23651.0&#45;&gt;table t1 column id 1259.23651.1</title>
<path fill="none" stroke="yellow" d="M2106.74,-548.887C2074.06,-530.409 2021.86,-500.892 1985.86,-480.536"/>
<polygon fill="yellow" stroke="yellow" points="1987.5,-477.446 1977.07,-475.57 1984.06,-483.539 1987.5,-477.446"/>
<text text-anchor="middle" x="2075.5" y="-506.9" font-family="Times,serif" font-size="14.00">an</text>
</g>
<!-- view v1 1259.23676.0 -->
<g id="node24" class="node"><title>view v1 1259.23676.0</title>
<ellipse fill="none" stroke="black" cx="2131" cy="-370" rx="92.9418" ry="18"/>
<text text-anchor="middle" x="2131" y="-364.9" font-family="Times,serif" font-size="14.00">view v1 1259.23676.0</text>
</g>
<!-- table t1 column id 1259.23651.1&#45;&gt;view v1 1259.23676.0 -->
<g id="edge20" class="edge"><title>table t1 column id 1259.23651.1&#45;&gt;view v1 1259.23676.0</title>
<path fill="none" stroke="black" d="M1982.55,-440.614C2012.45,-426.39 2054.85,-406.223 2086.68,-391.08"/>
<polygon fill="black" stroke="black" points="2088.25,-394.209 2095.78,-386.753 2085.25,-387.888 2088.25,-394.209"/>
<text text-anchor="middle" x="2058.5" y="-408.9" font-family="Times,serif" font-size="14.00">n</text>
</g>
<!-- constraint t1_pkey on table t1 2606.23655.0 -->
<g id="node26" class="node"><title>constraint t1_pkey on table t1 2606.23655.0</title>
<ellipse fill="none" stroke="black" cx="1847" cy="-370" rx="173.035" ry="18"/>
<text text-anchor="middle" x="1847" y="-364.9" font-family="Times,serif" font-size="14.00">constraint t1_pkey on table t1 2606.23655.0</text>
</g>
<!-- table t1 column id 1259.23651.1&#45;&gt;constraint t1_pkey on table t1 2606.23655.0 -->
<g id="edge22" class="edge"><title>table t1 column id 1259.23651.1&#45;&gt;constraint t1_pkey on table t1 2606.23655.0</title>
<path fill="none" stroke="blue" d="M1925.97,-440.192C1911.3,-427.158 1891.21,-409.302 1874.97,-394.862"/>
<polygon fill="blue" stroke="blue" points="1877.14,-392.111 1867.34,-388.084 1872.49,-397.343 1877.14,-392.111"/>
<text text-anchor="middle" x="1908.5" y="-408.9" font-family="Times,serif" font-size="14.00">a</text>
</g>
<!-- constraint t2_id_fkey on table t2 2606.23664.0 -->
<g id="node28" class="node"><title>constraint t2_id_fkey on table t2 2606.23664.0</title>
<ellipse fill="none" stroke="black" cx="1847" cy="-282" rx="184.083" ry="18"/>
<text text-anchor="middle" x="1847" y="-276.9" font-family="Times,serif" font-size="14.00">constraint t2_id_fkey on table t2 2606.23664.0</text>
</g>
<!-- table t1 column id 1259.23651.1&#45;&gt;constraint t2_id_fkey on table t2 2606.23664.0 -->
<g id="edge24" class="edge"><title>table t1 column id 1259.23651.1&#45;&gt;constraint t2_id_fkey on table t2 2606.23664.0</title>
<path fill="none" stroke="black" d="M1844.28,-446.583C1771,-436.019 1681.13,-417.43 1658,-388 1624.46,-345.326 1688.76,-317.084 1751.27,-300.561"/>
<polygon fill="black" stroke="black" points="1752.45,-303.873 1761.27,-298.009 1750.71,-297.09 1752.45,-303.873"/>
<text text-anchor="middle" x="1661.5" y="-364.9" font-family="Times,serif" font-size="14.00">n</text>
</g>
<!-- view v1 column id 1259.23676.1 -->
<g id="node48" class="node"><title>view v1 column id 1259.23676.1</title>
<ellipse fill="none" stroke="black" cx="2344" cy="-282" rx="133.888" ry="18"/>
<text text-anchor="middle" x="2344" y="-276.9" font-family="Times,serif" font-size="14.00">view v1 column id 1259.23676.1</text>
</g>
<!-- view v1 1259.23676.0&#45;&gt;view v1 column id 1259.23676.1 -->
<g id="edge44" class="edge"><title>view v1 1259.23676.0&#45;&gt;view v1 column id 1259.23676.1</title>
<path fill="none" stroke="black" d="M2170.56,-353.654C2205.17,-339.358 2255.63,-318.511 2293.21,-302.985"/>
<polygon fill="black" stroke="black" points="2294.56,-306.213 2302.47,-299.16 2291.89,-299.744 2294.56,-306.213"/>
<text text-anchor="middle" x="2259.5" y="-320.9" font-family="Times,serif" font-size="14.00">n</text>
</g>
<!-- constraint t1_pkey on table t1 2606.23655.0&#45;&gt;constraint t2_id_fkey on table t2 2606.23664.0 -->
<g id="edge60" class="edge"><title>constraint t1_pkey on table t1 2606.23655.0&#45;&gt;constraint t2_id_fkey on table t2 2606.23664.0</title>
<path fill="none" stroke="black" d="M1847,-351.766C1847,-339.849 1847,-324.038 1847,-310.482"/>
<polygon fill="black" stroke="black" points="1850.5,-310.21 1847,-300.21 1843.5,-310.21 1850.5,-310.21"/>
<text text-anchor="middle" x="1850.5" y="-320.9" font-family="Times,serif" font-size="14.00">n</text>
</g>
<!-- sequence s1 1259.23657.0 -->
<g id="node29" class="node"><title>sequence s1 1259.23657.0</title>
<ellipse fill="none" stroke="black" cx="3282" cy="-512" rx="108.04" ry="18"/>
<text text-anchor="middle" x="3282" y="-506.9" font-family="Times,serif" font-size="14.00">sequence s1 1259.23657.0</text>
</g>
<!-- default for table t3 column id 2604.23672.0 -->
<g id="node31" class="node"><title>default for table t3 column id 2604.23672.0</title>
<ellipse fill="none" stroke="black" cx="3692" cy="-370" rx="173.035" ry="18"/>
<text text-anchor="middle" x="3692" y="-364.9" font-family="Times,serif" font-size="14.00">default for table t3 column id 2604.23672.0</text>
</g>
<!-- sequence s1 1259.23657.0&#45;&gt;default for table t3 column id 2604.23672.0 -->
<g id="edge26" class="edge"><title>sequence s1 1259.23657.0&#45;&gt;default for table t3 column id 2604.23672.0</title>
<path fill="none" stroke="black" d="M3295,-494.119C3313.93,-469.596 3351.62,-426.265 3395,-406 3402.94,-402.292 3485.03,-392.49 3560.89,-384.05"/>
<polygon fill="black" stroke="black" points="3561.51,-387.502 3571.07,-382.922 3560.74,-380.545 3561.51,-387.502"/>
<text text-anchor="middle" x="3346.5" y="-452.9" font-family="Times,serif" font-size="14.00">n</text>
</g>
<!-- table t2 1259.23659.0 -->
<g id="node32" class="node"><title>table t2 1259.23659.0</title>
<ellipse fill="none" stroke="black" cx="2663" cy="-566" rx="90.9919" ry="18"/>
<text text-anchor="middle" x="2663" y="-560.9" font-family="Times,serif" font-size="14.00">table t2 1259.23659.0</text>
</g>
<!-- table t2 column id 1259.23659.1 -->
<g id="node34" class="node"><title>table t2 column id 1259.23659.1</title>
<ellipse fill="none" stroke="black" cx="2625" cy="-458" rx="131.938" ry="18"/>
<text text-anchor="middle" x="2625" y="-452.9" font-family="Times,serif" font-size="14.00">table t2 column id 1259.23659.1</text>
</g>
<!-- table t2 1259.23659.0&#45;&gt;table t2 column id 1259.23659.1 -->
<g id="edge28" class="edge"><title>table t2 1259.23659.0&#45;&gt;table t2 column id 1259.23659.1</title>
<path fill="none" stroke="yellow" d="M2656.55,-547.679C2650.57,-530.665 2641.57,-505.097 2634.71,-485.609"/>
<polygon fill="yellow" stroke="yellow" points="2637.97,-484.322 2631.35,-476.05 2631.37,-486.645 2637.97,-484.322"/>
<text text-anchor="middle" x="2655.5" y="-506.9" font-family="Times,serif" font-size="14.00">an</text>
</g>
<!-- table t2 column id 1259.23659.1&#45;&gt;constraint t2_id_fkey on table t2 2606.23664.0 -->
<g id="edge34" class="edge"><title>table t2 column id 1259.23659.1&#45;&gt;constraint t2_id_fkey on table t2 2606.23664.0</title>
<path fill="none" stroke="blue" d="M2625.96,-439.795C2626.15,-415.711 2622.46,-373.775 2597,-352 2575.02,-333.199 2225.13,-306.947 2011.12,-292.525"/>
<polygon fill="blue" stroke="blue" points="2011.24,-289.026 2001.03,-291.848 2010.77,-296.01 2011.24,-289.026"/>
<text text-anchor="middle" x="2621.5" y="-364.9" font-family="Times,serif" font-size="14.00">a</text>
</g>
<!-- view v2 1259.23680.0 -->
<g id="node36" class="node"><title>view v2 1259.23680.0</title>
<ellipse fill="none" stroke="black" cx="2742" cy="-370" rx="92.9418" ry="18"/>
<text text-anchor="middle" x="2742" y="-364.9" font-family="Times,serif" font-size="14.00">view v2 1259.23680.0</text>
</g>
<!-- table t2 column id 1259.23659.1&#45;&gt;view v2 1259.23680.0 -->
<g id="edge30" class="edge"><title>table t2 column id 1259.23659.1&#45;&gt;view v2 1259.23680.0</title>
<path fill="none" stroke="black" d="M2648.68,-440.192C2666.56,-426.745 2691.26,-408.166 2710.75,-393.501"/>
<polygon fill="black" stroke="black" points="2712.87,-396.289 2718.76,-387.481 2708.66,-390.695 2712.87,-396.289"/>
<text text-anchor="middle" x="2696.5" y="-408.9" font-family="Times,serif" font-size="14.00">n</text>
</g>
<!-- constraint t2_pkey on table t2 2606.23663.0 -->
<g id="node38" class="node"><title>constraint t2_pkey on table t2 2606.23663.0</title>
<ellipse fill="none" stroke="black" cx="2415" cy="-370" rx="172.885" ry="18"/>
<text text-anchor="middle" x="2415" y="-364.9" font-family="Times,serif" font-size="14.00">constraint t2_pkey on table t2 2606.23663.0</text>
</g>
<!-- table t2 column id 1259.23659.1&#45;&gt;constraint t2_pkey on table t2 2606.23663.0 -->
<g id="edge32" class="edge"><title>table t2 column id 1259.23659.1&#45;&gt;constraint t2_pkey on table t2 2606.23663.0</title>
<path fill="none" stroke="blue" d="M2584.01,-440.824C2550.37,-426.728 2502.56,-406.692 2466.37,-391.526"/>
<polygon fill="blue" stroke="blue" points="2467.54,-388.222 2456.96,-387.585 2464.83,-394.678 2467.54,-388.222"/>
<text text-anchor="middle" x="2541.5" y="-408.9" font-family="Times,serif" font-size="14.00">a</text>
</g>
<!-- view v2 column id 1259.23680.1 -->
<g id="node52" class="node"><title>view v2 column id 1259.23680.1</title>
<ellipse fill="none" stroke="black" cx="2701" cy="-282" rx="133.888" ry="18"/>
<text text-anchor="middle" x="2701" y="-276.9" font-family="Times,serif" font-size="14.00">view v2 column id 1259.23680.1</text>
</g>
<!-- view v2 1259.23680.0&#45;&gt;view v2 column id 1259.23680.1 -->
<g id="edge48" class="edge"><title>view v2 1259.23680.0&#45;&gt;view v2 column id 1259.23680.1</title>
<path fill="none" stroke="black" d="M2733.5,-351.766C2727.79,-339.495 2720.15,-323.096 2713.71,-309.28"/>
<polygon fill="black" stroke="black" points="2716.88,-307.797 2709.48,-300.21 2710.54,-310.753 2716.88,-307.797"/>
<text text-anchor="middle" x="2728.5" y="-320.9" font-family="Times,serif" font-size="14.00">n</text>
</g>
<!-- table t3 1259.23669.0 -->
<g id="node40" class="node"><title>table t3 1259.23669.0</title>
<ellipse fill="none" stroke="black" cx="3403" cy="-566" rx="90.9919" ry="18"/>
<text text-anchor="middle" x="3403" y="-560.9" font-family="Times,serif" font-size="14.00">table t3 1259.23669.0</text>
</g>
<!-- table t3 column id 1259.23669.1 -->
<g id="node42" class="node"><title>table t3 column id 1259.23669.1</title>
<ellipse fill="none" stroke="black" cx="3523" cy="-458" rx="131.938" ry="18"/>
<text text-anchor="middle" x="3523" y="-452.9" font-family="Times,serif" font-size="14.00">table t3 column id 1259.23669.1</text>
</g>
<!-- table t3 1259.23669.0&#45;&gt;table t3 column id 1259.23669.1 -->
<g id="edge36" class="edge"><title>table t3 1259.23669.0&#45;&gt;table t3 column id 1259.23669.1</title>
<path fill="none" stroke="yellow" d="M3422.55,-548.408C3442.39,-530.549 3473.28,-502.748 3495.57,-482.688"/>
<polygon fill="yellow" stroke="yellow" points="3497.97,-485.236 3503.06,-475.945 3493.29,-480.033 3497.97,-485.236"/>
<text text-anchor="middle" x="3486.5" y="-506.9" font-family="Times,serif" font-size="14.00">an</text>
</g>
<!-- table t3 column id 1259.23669.1&#45;&gt;constraint t3_id_check on table t3 2606.23673.0 -->
<g id="edge40" class="edge"><title>table t3 column id 1259.23669.1&#45;&gt;constraint t3_id_check on table t3 2606.23673.0</title>
<path fill="none" stroke="yellow" d="M3482.01,-440.824C3448.37,-426.728 3400.56,-406.692 3364.37,-391.526"/>
<polygon fill="yellow" stroke="yellow" points="3365.54,-388.222 3354.96,-387.585 3362.83,-394.678 3365.54,-388.222"/>
<text text-anchor="middle" x="3442.5" y="-408.9" font-family="Times,serif" font-size="14.00">na</text>
</g>
<!-- table t3 column id 1259.23669.1&#45;&gt;default for table t3 column id 2604.23672.0 -->
<g id="edge38" class="edge"><title>table t3 column id 1259.23669.1&#45;&gt;default for table t3 column id 2604.23672.0</title>
<path fill="none" stroke="blue" d="M3556.79,-440.403C3583.3,-426.599 3620.38,-407.293 3649,-392.389"/>
<polygon fill="blue" stroke="blue" points="3650.72,-395.44 3657.98,-387.717 3647.49,-389.231 3650.72,-395.44"/>
<text text-anchor="middle" x="3625.5" y="-408.9" font-family="Times,serif" font-size="14.00">a</text>
</g>
<!-- constraint t3_pkey on table t3 2606.23675.0 -->
<g id="node46" class="node"><title>constraint t3_pkey on table t3 2606.23675.0</title>
<ellipse fill="none" stroke="black" cx="4056" cy="-370" rx="172.885" ry="18"/>
<text text-anchor="middle" x="4056" y="-364.9" font-family="Times,serif" font-size="14.00">constraint t3_pkey on table t3 2606.23675.0</text>
</g>
<!-- table t3 column id 1259.23669.1&#45;&gt;constraint t3_pkey on table t3 2606.23675.0 -->
<g id="edge42" class="edge"><title>table t3 column id 1259.23669.1&#45;&gt;constraint t3_pkey on table t3 2606.23675.0</title>
<path fill="none" stroke="blue" d="M3607.16,-444.105C3700.99,-428.613 3852.75,-403.557 3953.44,-386.932"/>
<polygon fill="blue" stroke="blue" points="3954.03,-390.382 3963.33,-385.3 3952.89,-383.476 3954.03,-390.382"/>
<text text-anchor="middle" x="3840.5" y="-408.9" font-family="Times,serif" font-size="14.00">a</text>
</g>
<!-- view v3 1259.23684.0 -->
<g id="node50" class="node"><title>view v3 1259.23684.0</title>
<ellipse fill="none" stroke="black" cx="2701" cy="-194" rx="93.0912" ry="18"/>
<text text-anchor="middle" x="2701" y="-188.9" font-family="Times,serif" font-size="14.00">view v3 1259.23684.0</text>
</g>
<!-- view v1 column id 1259.23676.1&#45;&gt;view v3 1259.23684.0 -->
<g id="edge46" class="edge"><title>view v1 column id 1259.23676.1&#45;&gt;view v3 1259.23684.0</title>
<path fill="none" stroke="black" d="M2408.24,-266.166C2471.79,-250.501 2568.67,-226.619 2633.37,-210.67"/>
<polygon fill="black" stroke="black" points="2634.6,-213.972 2643.47,-208.181 2632.92,-207.176 2634.6,-213.972"/>
<text text-anchor="middle" x="2557.5" y="-232.9" font-family="Times,serif" font-size="14.00">n</text>
</g>
<!-- view v3 column id1 1259.23684.1 -->
<g id="node55" class="node"><title>view v3 column id1 1259.23684.1</title>
<ellipse fill="none" stroke="black" cx="2844" cy="-106" rx="137.938" ry="18"/>
<text text-anchor="middle" x="2844" y="-100.9" font-family="Times,serif" font-size="14.00">view v3 column id1 1259.23684.1</text>
</g>
<!-- view v3 1259.23684.0&#45;&gt;view v3 column id1 1259.23684.1 -->
<g id="edge52" class="edge"><title>view v3 1259.23684.0&#45;&gt;view v3 column id1 1259.23684.1</title>
<path fill="none" stroke="black" d="M2728.91,-176.824C2751.06,-163.192 2782.24,-144.006 2806.56,-129.041"/>
<polygon fill="black" stroke="black" points="2808.5,-131.958 2815.18,-123.736 2804.83,-125.996 2808.5,-131.958"/>
<text text-anchor="middle" x="2788.5" y="-144.9" font-family="Times,serif" font-size="14.00">n</text>
</g>
<!-- view v3 column id2 1259.23684.2 -->
<g id="node57" class="node"><title>view v3 column id2 1259.23684.2</title>
<ellipse fill="none" stroke="black" cx="2550" cy="-106" rx="137.938" ry="18"/>
<text text-anchor="middle" x="2550" y="-100.9" font-family="Times,serif" font-size="14.00">view v3 column id2 1259.23684.2</text>
</g>
<!-- view v3 1259.23684.0&#45;&gt;view v3 column id2 1259.23684.2 -->
<g id="edge54" class="edge"><title>view v3 1259.23684.0&#45;&gt;view v3 column id2 1259.23684.2</title>
<path fill="none" stroke="black" d="M2671.53,-176.824C2647.96,-163.088 2614.71,-143.711 2588.95,-128.697"/>
<polygon fill="black" stroke="black" points="2590.58,-125.596 2580.17,-123.585 2587.05,-131.644 2590.58,-125.596"/>
<text text-anchor="middle" x="2642.5" y="-144.9" font-family="Times,serif" font-size="14.00">n</text>
</g>
<!-- view v2 column id 1259.23680.1&#45;&gt;view v3 1259.23684.0 -->
<g id="edge50" class="edge"><title>view v2 column id 1259.23680.1&#45;&gt;view v3 1259.23684.0</title>
<path fill="none" stroke="black" d="M2701,-263.766C2701,-251.849 2701,-236.038 2701,-222.482"/>
<polygon fill="black" stroke="black" points="2704.5,-222.21 2701,-212.21 2697.5,-222.21 2704.5,-222.21"/>
<text text-anchor="middle" x="2704.5" y="-232.9" font-family="Times,serif" font-size="14.00">n</text>
</g>
<!-- view v3 column id1 1259.23684.1&#45;&gt;view v4 1259.23688.0 -->
<g id="edge56" class="edge"><title>view v3 column id1 1259.23684.1&#45;&gt;view v4 1259.23688.0</title>
<path fill="none" stroke="black" d="M2868.08,-88.1919C2886.27,-74.7448 2911.39,-56.1663 2931.22,-41.5006"/>
<polygon fill="black" stroke="black" points="2933.4,-44.2413 2939.36,-35.4813 2929.24,-38.613 2933.4,-44.2413"/>
<text text-anchor="middle" x="2917.5" y="-56.9" font-family="Times,serif" font-size="14.00">n</text>
</g>
<!-- view v3 column id2 1259.23684.2&#45;&gt;view v4 1259.23688.0 -->
<g id="edge58" class="edge"><title>view v3 column id2 1259.23684.2&#45;&gt;view v4 1259.23688.0</title>
<path fill="none" stroke="black" d="M2622.41,-90.5709C2697.69,-74.5314 2814.85,-49.5679 2890.25,-33.5016"/>
<polygon fill="black" stroke="black" points="2891.09,-36.9002 2900.14,-31.393 2889.63,-30.0539 2891.09,-36.9002"/>
<text text-anchor="middle" x="2796.5" y="-56.9" font-family="Times,serif" font-size="14.00">n</text>
</g>
<!-- schema public 2615.2200.0 -->
<g id="node61" class="node"><title>schema public 2615.2200.0</title>
<ellipse fill="none" stroke="black" cx="2834" cy="-654" rx="111.94" ry="18"/>
<text text-anchor="middle" x="2834" y="-648.9" font-family="Times,serif" font-size="14.00">schema public 2615.2200.0</text>
</g>
<!-- schema public 2615.2200.0&#45;&gt;function f1(integer) 1255.23656.0 -->
<g id="edge62" class="edge"><title>schema public 2615.2200.0&#45;&gt;function f1(integer) 1255.23656.0</title>
<path fill="none" stroke="black" d="M2866.6,-636.614C2892.5,-622.798 2928.92,-603.375 2957.01,-588.395"/>
<polygon fill="black" stroke="black" points="2959.01,-591.294 2966.19,-583.5 2955.72,-585.118 2959.01,-591.294"/>
<text text-anchor="middle" x="2934.5" y="-604.9" font-family="Times,serif" font-size="14.00">n</text>
</g>
<!-- schema public 2615.2200.0&#45;&gt;view v4 1259.23688.0 -->
<g id="edge78" class="edge"><title>schema public 2615.2200.0&#45;&gt;view v4 1259.23688.0</title>
<path fill="none" stroke="black" d="M2931.68,-645.18C3012.63,-635.608 3118.55,-617.061 3145,-584 3154.99,-571.506 3145.59,-563.989 3145,-548 3143.22,-499.901 3147.92,-486.876 3137,-440 3131.34,-415.725 3124.33,-411.493 3116,-388 3106.37,-360.835 3097,-354.82 3097,-326 3097,-326 3097,-326 3097,-106 3097,-70.7893 3064.27,-48.8885 3031.17,-35.7417"/>
<polygon fill="black" stroke="black" points="3031.98,-32.3082 3021.38,-32.0999 3029.54,-38.8685 3031.98,-32.3082"/>
<text text-anchor="middle" x="3100.5" y="-320.9" font-family="Times,serif" font-size="14.00">n</text>
</g>
<!-- schema public 2615.2200.0&#45;&gt;table t1 1259.23651.0 -->
<g id="edge64" class="edge"><title>schema public 2615.2200.0&#45;&gt;table t1 1259.23651.0</title>
<path fill="none" stroke="black" d="M2723.65,-650.666C2586.16,-645.85 2359.27,-635.544 2277,-618 2244.48,-611.065 2209.41,-598.028 2182.5,-586.743"/>
<polygon fill="black" stroke="black" points="2183.55,-583.385 2172.98,-582.679 2180.8,-589.823 2183.55,-583.385"/>
<text text-anchor="middle" x="2280.5" y="-604.9" font-family="Times,serif" font-size="14.00">n</text>
</g>
<!-- schema public 2615.2200.0&#45;&gt;view v1 1259.23676.0 -->
<g id="edge72" class="edge"><title>schema public 2615.2200.0&#45;&gt;view v1 1259.23676.0</title>
<path fill="none" stroke="black" d="M2763.44,-639.981C2708.01,-627.972 2629.37,-608.708 2563,-584 2411.62,-527.647 2242.96,-434.635 2169.11,-392.266"/>
<polygon fill="black" stroke="black" points="2170.58,-389.072 2160.17,-387.114 2167.08,-395.138 2170.58,-389.072"/>
<text text-anchor="middle" x="2434.5" y="-506.9" font-family="Times,serif" font-size="14.00">n</text>
</g>
<!-- schema public 2615.2200.0&#45;&gt;sequence s1 1259.23657.0 -->
<g id="edge66" class="edge"><title>schema public 2615.2200.0&#45;&gt;sequence s1 1259.23657.0</title>
<path fill="none" stroke="black" d="M2944.22,-650.517C3028.89,-646.357 3137.91,-637.345 3178,-618 3214.97,-600.159 3246.18,-563.505 3264.5,-538.342"/>
<polygon fill="black" stroke="black" points="3267.51,-540.154 3270.43,-529.97 3261.79,-536.108 3267.51,-540.154"/>
<text text-anchor="middle" x="3205.5" y="-604.9" font-family="Times,serif" font-size="14.00">n</text>
</g>
<!-- schema public 2615.2200.0&#45;&gt;table t2 1259.23659.0 -->
<g id="edge68" class="edge"><title>schema public 2615.2200.0&#45;&gt;table t2 1259.23659.0</title>
<path fill="none" stroke="black" d="M2800.22,-636.614C2772.9,-622.557 2734.31,-602.696 2705,-587.616"/>
<polygon fill="black" stroke="black" points="2706.34,-584.365 2695.84,-582.901 2703.13,-590.589 2706.34,-584.365"/>
<text text-anchor="middle" x="2766.5" y="-604.9" font-family="Times,serif" font-size="14.00">n</text>
</g>
<!-- schema public 2615.2200.0&#45;&gt;view v2 1259.23680.0 -->
<g id="edge74" class="edge"><title>schema public 2615.2200.0&#45;&gt;view v2 1259.23680.0</title>
<path fill="none" stroke="black" d="M2826.61,-635.786C2824.39,-630.121 2822.02,-623.831 2820,-618 2793,-539.862 2791.41,-518.669 2766,-440 2761.48,-426.013 2756.21,-410.546 2751.76,-397.716"/>
<polygon fill="black" stroke="black" points="2754.99,-396.36 2748.39,-388.07 2748.38,-398.665 2754.99,-396.36"/>
<text text-anchor="middle" x="2795.5" y="-506.9" font-family="Times,serif" font-size="14.00">n</text>
</g>
<!-- schema public 2615.2200.0&#45;&gt;table t3 1259.23669.0 -->
<g id="edge70" class="edge"><title>schema public 2615.2200.0&#45;&gt;table t3 1259.23669.0</title>
<path fill="none" stroke="black" d="M2939.56,-647.922C3043.67,-641.388 3195.34,-630.273 3253,-618 3287.88,-610.577 3325.81,-597.376 3354.81,-586.133"/>
<polygon fill="black" stroke="black" points="3356.26,-589.324 3364.28,-582.406 3353.69,-582.81 3356.26,-589.324"/>
<text text-anchor="middle" x="3310.5" y="-604.9" font-family="Times,serif" font-size="14.00">n</text>
</g>
<!-- schema public 2615.2200.0&#45;&gt;view v3 1259.23684.0 -->
<g id="edge76" class="edge"><title>schema public 2615.2200.0&#45;&gt;view v3 1259.23684.0</title>
<path fill="none" stroke="black" d="M2837.03,-635.858C2848.03,-567.601 2883.26,-326.924 2844,-264 2827.9,-238.197 2799.23,-221.643 2771.76,-211.155"/>
<polygon fill="black" stroke="black" points="2772.71,-207.778 2762.12,-207.692 2770.34,-214.366 2772.71,-207.778"/>
<text text-anchor="middle" x="2864.5" y="-408.9" font-family="Times,serif" font-size="14.00">n</text>
</g>
</g>
</svg>
